<?xml version="1.0" encoding="utf-8" standalone="no"?>
<!DOCTYPE svg PUBLIC "-//W3C//DTD SVG 1.1//EN"
  "http://www.w3.org/Graphics/SVG/1.1/DTD/svg11.dtd">
<svg xmlns:xlink="http://www.w3.org/1999/xlink" width="522.47952pt" height="313.67952pt" viewBox="0 0 522.47952 313.67952" xmlns="http://www.w3.org/2000/svg" version="1.1">
 <metadata>
  <rdf:RDF xmlns:dc="http://purl.org/dc/elements/1.1/" xmlns:cc="http://creativecommons.org/ns#" xmlns:rdf="http://www.w3.org/1999/02/22-rdf-syntax-ns#">
   <cc:Work>
    <dc:type rdf:resource="http://purl.org/dc/dcmitype/StillImage"/>
    <dc:date>2026-04-16T11:09:07.700967</dc:date>
    <dc:format>image/svg+xml</dc:format>
    <dc:creator>
     <cc:Agent>
      <dc:title>Matplotlib v3.9.2, https://matplotlib.org/</dc:title>
     </cc:Agent>
    </dc:creator>
   </cc:Work>
  </rdf:RDF>
 </metadata>
 <defs>
  <style type="text/css">*{stroke-linejoin: round; stroke-linecap: butt}</style>
 </defs>
 <g id="figure_1">
  <g id="patch_1">
   <path d="M 0 313.67952 
L 522.47952 313.67952 
L 522.47952 0 
L 0 0 
z
" style="fill: #ffffff"/>
  </g>
  <g id="axes_1">
   <g id="patch_2">
    <path d="M 61.164687 138.594676 
L 274.604325 138.594676 
L 274.604325 13.399687 
L 61.164687 13.399687 
z
" style="fill: #ffffff"/>
   </g>
   <g id="matplotlib.axis_1">
    <g id="xtick_1">
     <g id="line2d_1">
      <path d="M 61.164687 138.594676 
L 61.164687 13.399687 
" clip-path="url(#pae83f5112a)" style="fill: none; stroke: #cbd5e1; stroke-opacity: 0.9; stroke-width: 0.8; stroke-linecap: square"/>
     </g>
     <g id="line2d_2">
      <defs>
       <path id="md07023e1f8" d="M 0 0 
L 0 3.5 
" style="stroke: #475569; stroke-width: 0.8"/>
      </defs>
      <g>
       <use xlink:href="#md07023e1f8" x="61.164687" y="138.594676" style="fill: #475569; stroke: #475569; stroke-width: 0.8"/>
      </g>
     </g>
     <g id="text_1">
      <!-- 0% -->
      <g style="fill: #475569" transform="translate(55.166328 151.844051) scale(0.09 -0.09)">
       <defs>
        <path id="TimesNewRomanPSMT-30" d="M 231 2094 
Q 231 2819 450 3342 
Q 669 3866 1031 4122 
Q 1313 4325 1613 4325 
Q 2100 4325 2488 3828 
Q 2972 3213 2972 2159 
Q 2972 1422 2759 906 
Q 2547 391 2217 158 
Q 1888 -75 1581 -75 
Q 975 -75 572 641 
Q 231 1244 231 2094 
z
M 844 2016 
Q 844 1141 1059 588 
Q 1238 122 1591 122 
Q 1759 122 1940 273 
Q 2122 425 2216 781 
Q 2359 1319 2359 2297 
Q 2359 3022 2209 3506 
Q 2097 3866 1919 4016 
Q 1791 4119 1609 4119 
Q 1397 4119 1231 3928 
Q 1006 3669 925 3112 
Q 844 2556 844 2016 
z
" transform="scale(0.015625)"/>
        <path id="TimesNewRomanPSMT-25" d="M 4350 4334 
L 1263 -175 
L 984 -175 
L 4072 4334 
L 4350 4334 
z
M 1138 4334 
Q 1559 4334 1792 3984 
Q 2025 3634 2025 3181 
Q 2025 2638 1762 2341 
Q 1500 2044 1131 2044 
Q 884 2044 678 2180 
Q 472 2316 348 2584 
Q 225 2853 225 3181 
Q 225 3509 350 3786 
Q 475 4063 692 4198 
Q 909 4334 1138 4334 
z
M 1128 4159 
Q 969 4159 845 3971 
Q 722 3784 722 3184 
Q 722 2750 791 2522 
Q 844 2350 956 2256 
Q 1022 2200 1119 2200 
Q 1269 2200 1375 2363 
Q 1531 2603 1531 3166 
Q 1531 3759 1378 4000 
Q 1278 4159 1128 4159 
z
M 4206 2103 
Q 4428 2103 4648 1962 
Q 4869 1822 4989 1553 
Q 5109 1284 5109 963 
Q 5109 409 4843 117 
Q 4578 -175 4216 -175 
Q 3988 -175 3773 -34 
Q 3559 106 3436 367 
Q 3313 628 3313 963 
Q 3313 1291 3436 1562 
Q 3559 1834 3773 1968 
Q 3988 2103 4206 2103 
z
M 4209 1938 
Q 4059 1938 3950 1769 
Q 3809 1550 3809 941 
Q 3809 381 3953 159 
Q 4059 0 4209 0 
Q 4353 0 4466 172 
Q 4616 400 4616 956 
Q 4616 1544 4466 1778 
Q 4363 1938 4209 1938 
z
" transform="scale(0.015625)"/>
       </defs>
       <use xlink:href="#TimesNewRomanPSMT-30"/>
       <use xlink:href="#TimesNewRomanPSMT-25" x="50"/>
      </g>
     </g>
    </g>
    <g id="xtick_2">
     <g id="line2d_3">
      <path d="M 114.524597 138.594676 
L 114.524597 13.399687 
" clip-path="url(#pae83f5112a)" style="fill: none; stroke: #cbd5e1; stroke-opacity: 0.9; stroke-width: 0.8; stroke-linecap: square"/>
     </g>
     <g id="line2d_4">
      <g>
       <use xlink:href="#md07023e1f8" x="114.524597" y="138.594676" style="fill: #475569; stroke: #475569; stroke-width: 0.8"/>
      </g>
     </g>
     <g id="text_2">
      <!-- 25% -->
      <g style="fill: #475569" transform="translate(106.276237 151.844051) scale(0.09 -0.09)">
       <defs>
        <path id="TimesNewRomanPSMT-32" d="M 2934 816 
L 2638 0 
L 138 0 
L 138 116 
Q 1241 1122 1691 1759 
Q 2141 2397 2141 2925 
Q 2141 3328 1894 3587 
Q 1647 3847 1303 3847 
Q 991 3847 742 3664 
Q 494 3481 375 3128 
L 259 3128 
Q 338 3706 661 4015 
Q 984 4325 1469 4325 
Q 1984 4325 2329 3994 
Q 2675 3663 2675 3213 
Q 2675 2891 2525 2569 
Q 2294 2063 1775 1497 
Q 997 647 803 472 
L 1909 472 
Q 2247 472 2383 497 
Q 2519 522 2628 598 
Q 2738 675 2819 816 
L 2934 816 
z
" transform="scale(0.015625)"/>
        <path id="TimesNewRomanPSMT-35" d="M 2778 4238 
L 2534 3706 
L 1259 3706 
L 981 3138 
Q 1809 3016 2294 2522 
Q 2709 2097 2709 1522 
Q 2709 1188 2573 903 
Q 2438 619 2231 419 
Q 2025 219 1772 97 
Q 1413 -75 1034 -75 
Q 653 -75 479 54 
Q 306 184 306 341 
Q 306 428 378 495 
Q 450 563 559 563 
Q 641 563 702 538 
Q 763 513 909 409 
Q 1144 247 1384 247 
Q 1750 247 2026 523 
Q 2303 800 2303 1197 
Q 2303 1581 2056 1914 
Q 1809 2247 1375 2428 
Q 1034 2569 447 2591 
L 1259 4238 
L 2778 4238 
z
" transform="scale(0.015625)"/>
       </defs>
       <use xlink:href="#TimesNewRomanPSMT-32"/>
       <use xlink:href="#TimesNewRomanPSMT-35" x="50"/>
       <use xlink:href="#TimesNewRomanPSMT-25" x="100"/>
      </g>
     </g>
    </g>
    <g id="xtick_3">
     <g id="line2d_5">
      <path d="M 167.884506 138.594676 
L 167.884506 13.399687 
" clip-path="url(#pae83f5112a)" style="fill: none; stroke: #cbd5e1; stroke-opacity: 0.9; stroke-width: 0.8; stroke-linecap: square"/>
     </g>
     <g id="line2d_6">
      <g>
       <use xlink:href="#md07023e1f8" x="167.884506" y="138.594676" style="fill: #475569; stroke: #475569; stroke-width: 0.8"/>
      </g>
     </g>
     <g id="text_3">
      <!-- 50% -->
      <g style="fill: #475569" transform="translate(159.636147 151.844051) scale(0.09 -0.09)">
       <use xlink:href="#TimesNewRomanPSMT-35"/>
       <use xlink:href="#TimesNewRomanPSMT-30" x="50"/>
       <use xlink:href="#TimesNewRomanPSMT-25" x="100"/>
      </g>
     </g>
    </g>
    <g id="xtick_4">
     <g id="line2d_7">
      <path d="M 221.244415 138.594676 
L 221.244415 13.399687 
" clip-path="url(#pae83f5112a)" style="fill: none; stroke: #cbd5e1; stroke-opacity: 0.9; stroke-width: 0.8; stroke-linecap: square"/>
     </g>
     <g id="line2d_8">
      <g>
       <use xlink:href="#md07023e1f8" x="221.244415" y="138.594676" style="fill: #475569; stroke: #475569; stroke-width: 0.8"/>
      </g>
     </g>
     <g id="text_4">
      <!-- 75% -->
      <g style="fill: #475569" transform="translate(212.996056 151.844051) scale(0.09 -0.09)">
       <defs>
        <path id="TimesNewRomanPSMT-37" d="M 644 4238 
L 2916 4238 
L 2916 4119 
L 1503 -88 
L 1153 -88 
L 2419 3728 
L 1253 3728 
Q 900 3728 750 3644 
Q 488 3500 328 3200 
L 238 3234 
L 644 4238 
z
" transform="scale(0.015625)"/>
       </defs>
       <use xlink:href="#TimesNewRomanPSMT-37"/>
       <use xlink:href="#TimesNewRomanPSMT-35" x="50"/>
       <use xlink:href="#TimesNewRomanPSMT-25" x="100"/>
      </g>
     </g>
    </g>
    <g id="xtick_5">
     <g id="line2d_9">
      <path d="M 274.604325 138.594676 
L 274.604325 13.399687 
" clip-path="url(#pae83f5112a)" style="fill: none; stroke: #cbd5e1; stroke-opacity: 0.9; stroke-width: 0.8; stroke-linecap: square"/>
     </g>
     <g id="line2d_10">
      <g>
       <use xlink:href="#md07023e1f8" x="274.604325" y="138.594676" style="fill: #475569; stroke: #475569; stroke-width: 0.8"/>
      </g>
     </g>
     <g id="text_5">
      <!-- 100% -->
      <g style="fill: #475569" transform="translate(264.105965 151.844051) scale(0.09 -0.09)">
       <defs>
        <path id="TimesNewRomanPSMT-31" d="M 750 3822 
L 1781 4325 
L 1884 4325 
L 1884 747 
Q 1884 391 1914 303 
Q 1944 216 2037 169 
Q 2131 122 2419 116 
L 2419 0 
L 825 0 
L 825 116 
Q 1125 122 1212 167 
Q 1300 213 1334 289 
Q 1369 366 1369 747 
L 1369 3034 
Q 1369 3497 1338 3628 
Q 1316 3728 1258 3775 
Q 1200 3822 1119 3822 
Q 1003 3822 797 3725 
L 750 3822 
z
" transform="scale(0.015625)"/>
       </defs>
       <use xlink:href="#TimesNewRomanPSMT-31"/>
       <use xlink:href="#TimesNewRomanPSMT-30" x="50"/>
       <use xlink:href="#TimesNewRomanPSMT-30" x="100"/>
       <use xlink:href="#TimesNewRomanPSMT-25" x="150"/>
      </g>
     </g>
    </g>
   </g>
   <g id="matplotlib.axis_2">
    <g id="ytick_1">
     <g id="line2d_11"/>
     <g id="text_6">
      <!-- Baseline -->
      <g style="fill: #0f172a" transform="translate(26.672344 22.215056) scale(0.09 -0.09)">
       <defs>
        <path id="TimesNewRomanPSMT-42" d="M 2956 2163 
Q 3397 2069 3616 1863 
Q 3919 1575 3919 1159 
Q 3919 844 3719 555 
Q 3519 266 3170 133 
Q 2822 0 2106 0 
L 106 0 
L 106 116 
L 266 116 
Q 531 116 647 284 
Q 719 394 719 750 
L 719 3488 
Q 719 3881 628 3984 
Q 506 4122 266 4122 
L 106 4122 
L 106 4238 
L 1938 4238 
Q 2450 4238 2759 4163 
Q 3228 4050 3475 3764 
Q 3722 3478 3722 3106 
Q 3722 2788 3528 2536 
Q 3334 2284 2956 2163 
z
M 1319 2331 
Q 1434 2309 1582 2298 
Q 1731 2288 1909 2288 
Q 2366 2288 2595 2386 
Q 2825 2484 2947 2687 
Q 3069 2891 3069 3131 
Q 3069 3503 2766 3765 
Q 2463 4028 1881 4028 
Q 1569 4028 1319 3959 
L 1319 2331 
z
M 1319 306 
Q 1681 222 2034 222 
Q 2600 222 2897 476 
Q 3194 731 3194 1106 
Q 3194 1353 3059 1581 
Q 2925 1809 2622 1940 
Q 2319 2072 1872 2072 
Q 1678 2072 1540 2065 
Q 1403 2059 1319 2044 
L 1319 306 
z
" transform="scale(0.015625)"/>
        <path id="TimesNewRomanPSMT-61" d="M 1822 413 
Q 1381 72 1269 19 
Q 1100 -59 909 -59 
Q 613 -59 420 144 
Q 228 347 228 678 
Q 228 888 322 1041 
Q 450 1253 767 1440 
Q 1084 1628 1822 1897 
L 1822 2009 
Q 1822 2438 1686 2597 
Q 1550 2756 1291 2756 
Q 1094 2756 978 2650 
Q 859 2544 859 2406 
L 866 2225 
Q 866 2081 792 2003 
Q 719 1925 600 1925 
Q 484 1925 411 2006 
Q 338 2088 338 2228 
Q 338 2497 613 2722 
Q 888 2947 1384 2947 
Q 1766 2947 2009 2819 
Q 2194 2722 2281 2516 
Q 2338 2381 2338 1966 
L 2338 994 
Q 2338 584 2353 492 
Q 2369 400 2405 369 
Q 2441 338 2488 338 
Q 2538 338 2575 359 
Q 2641 400 2828 588 
L 2828 413 
Q 2478 -56 2159 -56 
Q 2006 -56 1915 50 
Q 1825 156 1822 413 
z
M 1822 616 
L 1822 1706 
Q 1350 1519 1213 1441 
Q 966 1303 859 1153 
Q 753 1003 753 825 
Q 753 600 887 451 
Q 1022 303 1197 303 
Q 1434 303 1822 616 
z
" transform="scale(0.015625)"/>
        <path id="TimesNewRomanPSMT-73" d="M 2050 2947 
L 2050 1972 
L 1947 1972 
Q 1828 2431 1642 2597 
Q 1456 2763 1169 2763 
Q 950 2763 815 2647 
Q 681 2531 681 2391 
Q 681 2216 781 2091 
Q 878 1963 1175 1819 
L 1631 1597 
Q 2266 1288 2266 781 
Q 2266 391 1970 151 
Q 1675 -88 1309 -88 
Q 1047 -88 709 6 
Q 606 38 541 38 
Q 469 38 428 -44 
L 325 -44 
L 325 978 
L 428 978 
Q 516 541 762 319 
Q 1009 97 1316 97 
Q 1531 97 1667 223 
Q 1803 350 1803 528 
Q 1803 744 1651 891 
Q 1500 1038 1047 1263 
Q 594 1488 453 1669 
Q 313 1847 313 2119 
Q 313 2472 555 2709 
Q 797 2947 1181 2947 
Q 1350 2947 1591 2875 
Q 1750 2828 1803 2828 
Q 1853 2828 1881 2850 
Q 1909 2872 1947 2947 
L 2050 2947 
z
" transform="scale(0.015625)"/>
        <path id="TimesNewRomanPSMT-65" d="M 681 1784 
Q 678 1147 991 784 
Q 1303 422 1725 422 
Q 2006 422 2214 576 
Q 2422 731 2563 1106 
L 2659 1044 
Q 2594 616 2278 264 
Q 1963 -88 1488 -88 
Q 972 -88 605 314 
Q 238 716 238 1394 
Q 238 2128 614 2539 
Q 991 2950 1559 2950 
Q 2041 2950 2350 2633 
Q 2659 2316 2659 1784 
L 681 1784 
z
M 681 1966 
L 2006 1966 
Q 1991 2241 1941 2353 
Q 1863 2528 1708 2628 
Q 1553 2728 1384 2728 
Q 1125 2728 920 2526 
Q 716 2325 681 1966 
z
" transform="scale(0.015625)"/>
        <path id="TimesNewRomanPSMT-6c" d="M 1184 4444 
L 1184 647 
Q 1184 378 1223 290 
Q 1263 203 1344 158 
Q 1425 113 1647 113 
L 1647 0 
L 244 0 
L 244 113 
Q 441 113 512 153 
Q 584 194 625 287 
Q 666 381 666 647 
L 666 3247 
Q 666 3731 644 3842 
Q 622 3953 573 3993 
Q 525 4034 450 4034 
Q 369 4034 244 3984 
L 191 4094 
L 1044 4444 
L 1184 4444 
z
" transform="scale(0.015625)"/>
        <path id="TimesNewRomanPSMT-69" d="M 928 4444 
Q 1059 4444 1151 4351 
Q 1244 4259 1244 4128 
Q 1244 3997 1151 3903 
Q 1059 3809 928 3809 
Q 797 3809 703 3903 
Q 609 3997 609 4128 
Q 609 4259 701 4351 
Q 794 4444 928 4444 
z
M 1188 2947 
L 1188 647 
Q 1188 378 1227 289 
Q 1266 200 1342 156 
Q 1419 113 1622 113 
L 1622 0 
L 231 0 
L 231 113 
Q 441 113 512 153 
Q 584 194 626 287 
Q 669 381 669 647 
L 669 1750 
Q 669 2216 641 2353 
Q 619 2453 572 2492 
Q 525 2531 444 2531 
Q 356 2531 231 2484 
L 188 2597 
L 1050 2947 
L 1188 2947 
z
" transform="scale(0.015625)"/>
        <path id="TimesNewRomanPSMT-6e" d="M 1034 2341 
Q 1538 2947 1994 2947 
Q 2228 2947 2397 2830 
Q 2566 2713 2666 2444 
Q 2734 2256 2734 1869 
L 2734 647 
Q 2734 375 2778 278 
Q 2813 200 2889 156 
Q 2966 113 3172 113 
L 3172 0 
L 1756 0 
L 1756 113 
L 1816 113 
Q 2016 113 2095 173 
Q 2175 234 2206 353 
Q 2219 400 2219 647 
L 2219 1819 
Q 2219 2209 2117 2386 
Q 2016 2563 1775 2563 
Q 1403 2563 1034 2156 
L 1034 647 
Q 1034 356 1069 288 
Q 1113 197 1189 155 
Q 1266 113 1500 113 
L 1500 0 
L 84 0 
L 84 113 
L 147 113 
Q 366 113 442 223 
Q 519 334 519 647 
L 519 1709 
Q 519 2225 495 2337 
Q 472 2450 423 2490 
Q 375 2531 294 2531 
Q 206 2531 84 2484 
L 38 2597 
L 900 2947 
L 1034 2947 
L 1034 2341 
z
" transform="scale(0.015625)"/>
       </defs>
       <use xlink:href="#TimesNewRomanPSMT-42"/>
       <use xlink:href="#TimesNewRomanPSMT-61" x="66.699219"/>
       <use xlink:href="#TimesNewRomanPSMT-73" x="111.083984"/>
       <use xlink:href="#TimesNewRomanPSMT-65" x="150"/>
       <use xlink:href="#TimesNewRomanPSMT-6c" x="194.384766"/>
       <use xlink:href="#TimesNewRomanPSMT-69" x="222.167969"/>
       <use xlink:href="#TimesNewRomanPSMT-6e" x="249.951172"/>
       <use xlink:href="#TimesNewRomanPSMT-65" x="299.951172"/>
      </g>
     </g>
    </g>
    <g id="ytick_2">
     <g id="line2d_12"/>
     <g id="text_7">
      <!-- Generic control -->
      <g style="fill: #0f172a" transform="translate(1.44 79.121869) scale(0.09 -0.09)">
       <defs>
        <path id="TimesNewRomanPSMT-47" d="M 3928 4334 
L 4038 2997 
L 3928 2997 
Q 3763 3497 3500 3750 
Q 3122 4116 2528 4116 
Q 1719 4116 1297 3475 
Q 944 2934 944 2188 
Q 944 1581 1178 1081 
Q 1413 581 1792 348 
Q 2172 116 2572 116 
Q 2806 116 3025 175 
Q 3244 234 3447 350 
L 3447 1575 
Q 3447 1894 3398 1992 
Q 3350 2091 3248 2142 
Q 3147 2194 2891 2194 
L 2891 2313 
L 4531 2313 
L 4531 2194 
L 4453 2194 
Q 4209 2194 4119 2031 
Q 4056 1916 4056 1575 
L 4056 278 
Q 3697 84 3347 -6 
Q 2997 -97 2569 -97 
Q 1341 -97 703 691 
Q 225 1281 225 2053 
Q 225 2613 494 3125 
Q 813 3734 1369 4063 
Q 1834 4334 2469 4334 
Q 2700 4334 2889 4296 
Q 3078 4259 3425 4131 
Q 3600 4066 3659 4066 
Q 3719 4066 3761 4120 
Q 3803 4175 3813 4334 
L 3928 4334 
z
" transform="scale(0.015625)"/>
        <path id="TimesNewRomanPSMT-72" d="M 1038 2947 
L 1038 2303 
Q 1397 2947 1775 2947 
Q 1947 2947 2059 2842 
Q 2172 2738 2172 2600 
Q 2172 2478 2090 2393 
Q 2009 2309 1897 2309 
Q 1788 2309 1652 2417 
Q 1516 2525 1450 2525 
Q 1394 2525 1328 2463 
Q 1188 2334 1038 2041 
L 1038 669 
Q 1038 431 1097 309 
Q 1138 225 1241 169 
Q 1344 113 1538 113 
L 1538 0 
L 72 0 
L 72 113 
Q 291 113 397 181 
Q 475 231 506 341 
Q 522 394 522 644 
L 522 1753 
Q 522 2253 501 2348 
Q 481 2444 426 2487 
Q 372 2531 291 2531 
Q 194 2531 72 2484 
L 41 2597 
L 906 2947 
L 1038 2947 
z
" transform="scale(0.015625)"/>
        <path id="TimesNewRomanPSMT-63" d="M 2631 1088 
Q 2516 522 2178 217 
Q 1841 -88 1431 -88 
Q 944 -88 581 321 
Q 219 731 219 1428 
Q 219 2103 620 2525 
Q 1022 2947 1584 2947 
Q 2006 2947 2278 2723 
Q 2550 2500 2550 2259 
Q 2550 2141 2473 2067 
Q 2397 1994 2259 1994 
Q 2075 1994 1981 2113 
Q 1928 2178 1911 2362 
Q 1894 2547 1784 2644 
Q 1675 2738 1481 2738 
Q 1169 2738 978 2506 
Q 725 2200 725 1697 
Q 725 1184 976 792 
Q 1228 400 1656 400 
Q 1963 400 2206 609 
Q 2378 753 2541 1131 
L 2631 1088 
z
" transform="scale(0.015625)"/>
        <path id="TimesNewRomanPSMT-20" transform="scale(0.015625)"/>
        <path id="TimesNewRomanPSMT-6f" d="M 1600 2947 
Q 2250 2947 2644 2453 
Q 2978 2031 2978 1484 
Q 2978 1100 2793 706 
Q 2609 313 2286 112 
Q 1963 -88 1566 -88 
Q 919 -88 538 428 
Q 216 863 216 1403 
Q 216 1797 411 2186 
Q 606 2575 925 2761 
Q 1244 2947 1600 2947 
z
M 1503 2744 
Q 1338 2744 1170 2645 
Q 1003 2547 900 2300 
Q 797 2053 797 1666 
Q 797 1041 1045 587 
Q 1294 134 1700 134 
Q 2003 134 2200 384 
Q 2397 634 2397 1244 
Q 2397 2006 2069 2444 
Q 1847 2744 1503 2744 
z
" transform="scale(0.015625)"/>
        <path id="TimesNewRomanPSMT-74" d="M 1031 3803 
L 1031 2863 
L 1700 2863 
L 1700 2644 
L 1031 2644 
L 1031 788 
Q 1031 509 1111 412 
Q 1191 316 1316 316 
Q 1419 316 1516 380 
Q 1613 444 1666 569 
L 1788 569 
Q 1678 263 1478 108 
Q 1278 -47 1066 -47 
Q 922 -47 784 33 
Q 647 113 581 261 
Q 516 409 516 719 
L 516 2644 
L 63 2644 
L 63 2747 
Q 234 2816 414 2980 
Q 594 3144 734 3369 
Q 806 3488 934 3803 
L 1031 3803 
z
" transform="scale(0.015625)"/>
       </defs>
       <use xlink:href="#TimesNewRomanPSMT-47"/>
       <use xlink:href="#TimesNewRomanPSMT-65" x="72.216797"/>
       <use xlink:href="#TimesNewRomanPSMT-6e" x="116.601562"/>
       <use xlink:href="#TimesNewRomanPSMT-65" x="166.601562"/>
       <use xlink:href="#TimesNewRomanPSMT-72" x="210.986328"/>
       <use xlink:href="#TimesNewRomanPSMT-69" x="244.287109"/>
       <use xlink:href="#TimesNewRomanPSMT-63" x="272.070312"/>
       <use xlink:href="#TimesNewRomanPSMT-20" x="316.455078"/>
       <use xlink:href="#TimesNewRomanPSMT-63" x="341.455078"/>
       <use xlink:href="#TimesNewRomanPSMT-6f" x="385.839844"/>
       <use xlink:href="#TimesNewRomanPSMT-6e" x="435.839844"/>
       <use xlink:href="#TimesNewRomanPSMT-74" x="485.839844"/>
       <use xlink:href="#TimesNewRomanPSMT-72" x="513.623047"/>
       <use xlink:href="#TimesNewRomanPSMT-6f" x="546.923828"/>
       <use xlink:href="#TimesNewRomanPSMT-6c" x="596.923828"/>
      </g>
     </g>
    </g>
    <g id="ytick_3">
     <g id="line2d_13"/>
     <g id="text_8">
      <!-- Disclosure Full -->
      <g style="fill: #0f172a" transform="translate(2.415937 136.028682) scale(0.09 -0.09)">
       <defs>
        <path id="TimesNewRomanPSMT-44" d="M 109 0 
L 109 116 
L 269 116 
Q 538 116 650 288 
Q 719 391 719 750 
L 719 3488 
Q 719 3884 631 3984 
Q 509 4122 269 4122 
L 109 4122 
L 109 4238 
L 1834 4238 
Q 2784 4238 3279 4022 
Q 3775 3806 4076 3303 
Q 4378 2800 4378 2141 
Q 4378 1256 3841 663 
Q 3238 0 2003 0 
L 109 0 
z
M 1319 306 
Q 1716 219 1984 219 
Q 2709 219 3187 728 
Q 3666 1238 3666 2109 
Q 3666 2988 3187 3494 
Q 2709 4000 1959 4000 
Q 1678 4000 1319 3909 
L 1319 306 
z
" transform="scale(0.015625)"/>
        <path id="TimesNewRomanPSMT-75" d="M 2709 2863 
L 2709 1128 
Q 2709 631 2732 520 
Q 2756 409 2807 365 
Q 2859 322 2928 322 
Q 3025 322 3147 375 
L 3191 266 
L 2334 -88 
L 2194 -88 
L 2194 519 
Q 1825 119 1631 15 
Q 1438 -88 1222 -88 
Q 981 -88 804 51 
Q 628 191 559 409 
Q 491 628 491 1028 
L 491 2306 
Q 491 2509 447 2587 
Q 403 2666 317 2708 
Q 231 2750 6 2747 
L 6 2863 
L 1009 2863 
L 1009 947 
Q 1009 547 1148 422 
Q 1288 297 1484 297 
Q 1619 297 1789 381 
Q 1959 466 2194 703 
L 2194 2325 
Q 2194 2569 2105 2655 
Q 2016 2741 1734 2747 
L 1734 2863 
L 2709 2863 
z
" transform="scale(0.015625)"/>
        <path id="TimesNewRomanPSMT-46" d="M 1309 4006 
L 1309 2341 
L 2081 2341 
Q 2347 2341 2470 2458 
Q 2594 2575 2634 2922 
L 2750 2922 
L 2750 1488 
L 2634 1488 
Q 2631 1734 2570 1850 
Q 2509 1966 2401 2023 
Q 2294 2081 2081 2081 
L 1309 2081 
L 1309 750 
Q 1309 428 1350 325 
Q 1381 247 1481 191 
Q 1619 116 1769 116 
L 1922 116 
L 1922 0 
L 103 0 
L 103 116 
L 253 116 
Q 516 116 634 269 
Q 709 369 709 750 
L 709 3488 
Q 709 3809 669 3913 
Q 638 3991 541 4047 
Q 406 4122 253 4122 
L 103 4122 
L 103 4238 
L 3256 4238 
L 3297 3306 
L 3188 3306 
Q 3106 3603 2998 3742 
Q 2891 3881 2733 3943 
Q 2575 4006 2244 4006 
L 1309 4006 
z
" transform="scale(0.015625)"/>
       </defs>
       <use xlink:href="#TimesNewRomanPSMT-44"/>
       <use xlink:href="#TimesNewRomanPSMT-69" x="72.216797"/>
       <use xlink:href="#TimesNewRomanPSMT-73" x="100"/>
       <use xlink:href="#TimesNewRomanPSMT-63" x="138.916016"/>
       <use xlink:href="#TimesNewRomanPSMT-6c" x="183.300781"/>
       <use xlink:href="#TimesNewRomanPSMT-6f" x="211.083984"/>
       <use xlink:href="#TimesNewRomanPSMT-73" x="261.083984"/>
       <use xlink:href="#TimesNewRomanPSMT-75" x="300"/>
       <use xlink:href="#TimesNewRomanPSMT-72" x="350"/>
       <use xlink:href="#TimesNewRomanPSMT-65" x="383.300781"/>
       <use xlink:href="#TimesNewRomanPSMT-20" x="427.685547"/>
       <use xlink:href="#TimesNewRomanPSMT-46" x="452.685547"/>
       <use xlink:href="#TimesNewRomanPSMT-75" x="508.300781"/>
       <use xlink:href="#TimesNewRomanPSMT-6c" x="558.300781"/>
       <use xlink:href="#TimesNewRomanPSMT-6c" x="586.083984"/>
      </g>
     </g>
    </g>
   </g>
   <g id="patch_3">
    <path d="M 61.164687 138.594676 
L 61.164687 13.399687 
" style="fill: none; stroke: #cbd5e1; stroke-width: 0.8; stroke-linejoin: miter; stroke-linecap: square"/>
   </g>
   <g id="patch_4">
    <path d="M 61.164687 138.594676 
L 274.604325 138.594676 
" style="fill: none; stroke: #cbd5e1; stroke-width: 0.8; stroke-linejoin: miter; stroke-linecap: square"/>
   </g>
   <g id="LineCollection_1">
    <path d="M 245.153801 19.090369 
L 274.604325 19.090369 
" clip-path="url(#pae83f5112a)" style="fill: none; stroke: #475569; stroke-width: 2"/>
   </g>
   <g id="line2d_14">
    <defs>
     <path id="m8fd2421fea" d="M 0 3 
L 0 -3 
" style="stroke: #475569"/>
    </defs>
    <g clip-path="url(#pae83f5112a)">
     <use xlink:href="#m8fd2421fea" x="245.153801" y="19.090369" style="fill: #475569; stroke: #475569"/>
    </g>
   </g>
   <g id="line2d_15">
    <g clip-path="url(#pae83f5112a)">
     <use xlink:href="#m8fd2421fea" x="274.604325" y="19.090369" style="fill: #475569; stroke: #475569"/>
    </g>
   </g>
   <g id="text_9">
    <!-- 24/24 -->
    <g style="fill: #475569" transform="translate(247.915947 20.892127) scale(0.075 -0.075)">
     <defs>
      <path id="TimesNewRomanPSMT-34" d="M 2978 1563 
L 2978 1119 
L 2409 1119 
L 2409 0 
L 1894 0 
L 1894 1119 
L 100 1119 
L 100 1519 
L 2066 4325 
L 2409 4325 
L 2409 1563 
L 2978 1563 
z
M 1894 1563 
L 1894 3666 
L 406 1563 
L 1894 1563 
z
" transform="scale(0.015625)"/>
      <path id="TimesNewRomanPSMT-2f" d="M 1794 4444 
L 259 -88 
L 9 -88 
L 1544 4444 
L 1794 4444 
z
" transform="scale(0.015625)"/>
     </defs>
     <use xlink:href="#TimesNewRomanPSMT-32"/>
     <use xlink:href="#TimesNewRomanPSMT-34" x="50"/>
     <use xlink:href="#TimesNewRomanPSMT-2f" x="100"/>
     <use xlink:href="#TimesNewRomanPSMT-32" x="127.783203"/>
     <use xlink:href="#TimesNewRomanPSMT-34" x="177.783203"/>
    </g>
   </g>
   <g id="LineCollection_2">
    <path d="M 245.153801 75.997182 
L 274.604325 75.997182 
" clip-path="url(#pae83f5112a)" style="fill: none; stroke: #2563eb; stroke-width: 2"/>
   </g>
   <g id="line2d_16">
    <defs>
     <path id="m6b13640884" d="M 0 3 
L 0 -3 
" style="stroke: #2563eb"/>
    </defs>
    <g clip-path="url(#pae83f5112a)">
     <use xlink:href="#m6b13640884" x="245.153801" y="75.997182" style="fill: #2563eb; stroke: #2563eb"/>
    </g>
   </g>
   <g id="line2d_17">
    <g clip-path="url(#pae83f5112a)">
     <use xlink:href="#m6b13640884" x="274.604325" y="75.997182" style="fill: #2563eb; stroke: #2563eb"/>
    </g>
   </g>
   <g id="text_10">
    <!-- 24/24 -->
    <g style="fill: #2563eb" transform="translate(247.915947 77.79894) scale(0.075 -0.075)">
     <use xlink:href="#TimesNewRomanPSMT-32"/>
     <use xlink:href="#TimesNewRomanPSMT-34" x="50"/>
     <use xlink:href="#TimesNewRomanPSMT-2f" x="100"/>
     <use xlink:href="#TimesNewRomanPSMT-32" x="127.783203"/>
     <use xlink:href="#TimesNewRomanPSMT-34" x="177.783203"/>
    </g>
   </g>
   <g id="LineCollection_3">
    <path d="M 245.153801 132.903995 
L 274.604325 132.903995 
" clip-path="url(#pae83f5112a)" style="fill: none; stroke: #c2410c; stroke-width: 2"/>
   </g>
   <g id="line2d_18">
    <defs>
     <path id="m22d50620e6" d="M 0 3 
L 0 -3 
" style="stroke: #c2410c"/>
    </defs>
    <g clip-path="url(#pae83f5112a)">
     <use xlink:href="#m22d50620e6" x="245.153801" y="132.903995" style="fill: #c2410c; stroke: #c2410c"/>
    </g>
   </g>
   <g id="line2d_19">
    <g clip-path="url(#pae83f5112a)">
     <use xlink:href="#m22d50620e6" x="274.604325" y="132.903995" style="fill: #c2410c; stroke: #c2410c"/>
    </g>
   </g>
   <g id="text_11">
    <!-- 24/24 -->
    <g style="fill: #c2410c" transform="translate(247.915947 134.705753) scale(0.075 -0.075)">
     <use xlink:href="#TimesNewRomanPSMT-32"/>
     <use xlink:href="#TimesNewRomanPSMT-34" x="50"/>
     <use xlink:href="#TimesNewRomanPSMT-2f" x="100"/>
     <use xlink:href="#TimesNewRomanPSMT-32" x="127.783203"/>
     <use xlink:href="#TimesNewRomanPSMT-34" x="177.783203"/>
    </g>
   </g>
   <g id="text_12">
    <!-- Disc&gt;=2 on risk -->
    <g transform="translate(61.164687 7.399687) scale(0.09 -0.09)">
     <defs>
      <path id="TimesNewRomanPS-BoldMT-44" d="M 84 0 
L 84 116 
L 225 116 
Q 409 116 507 173 
Q 606 231 653 331 
Q 681 397 681 725 
L 681 3513 
Q 681 3838 647 3919 
Q 613 4000 508 4061 
Q 403 4122 225 4122 
L 84 4122 
L 84 4238 
L 1981 4238 
Q 2741 4238 3203 4031 
Q 3769 3778 4061 3265 
Q 4353 2753 4353 2106 
Q 4353 1659 4209 1282 
Q 4066 906 3837 661 
Q 3609 416 3311 267 
Q 3013 119 2581 38 
Q 2391 0 1981 0 
L 84 0 
z
M 1700 3997 
L 1700 691 
Q 1700 428 1725 368 
Q 1750 309 1809 278 
Q 1894 231 2053 231 
Q 2575 231 2850 588 
Q 3225 1069 3225 2081 
Q 3225 2897 2969 3384 
Q 2766 3766 2447 3903 
Q 2222 4000 1700 3997 
z
" transform="scale(0.015625)"/>
      <path id="TimesNewRomanPS-BoldMT-69" d="M 919 4338 
Q 1122 4338 1262 4195 
Q 1403 4053 1403 3853 
Q 1403 3653 1261 3512 
Q 1119 3372 919 3372 
Q 719 3372 578 3512 
Q 438 3653 438 3853 
Q 438 4053 578 4195 
Q 719 4338 919 4338 
z
M 1356 2922 
L 1356 606 
Q 1356 297 1428 211 
Q 1500 125 1709 113 
L 1709 0 
L 131 0 
L 131 113 
Q 325 119 419 225 
Q 481 297 481 606 
L 481 2313 
Q 481 2622 409 2708 
Q 338 2794 131 2806 
L 131 2922 
L 1356 2922 
z
" transform="scale(0.015625)"/>
      <path id="TimesNewRomanPS-BoldMT-73" d="M 2063 3003 
L 2109 2006 
L 2003 2006 
Q 1813 2450 1608 2612 
Q 1403 2775 1200 2775 
Q 1072 2775 981 2689 
Q 891 2603 891 2491 
Q 891 2406 953 2328 
Q 1053 2200 1512 1889 
Q 1972 1578 2117 1361 
Q 2263 1144 2263 875 
Q 2263 631 2141 397 
Q 2019 163 1797 37 
Q 1575 -88 1306 -88 
Q 1097 -88 747 44 
Q 653 78 619 78 
Q 516 78 447 -78 
L 344 -78 
L 294 972 
L 400 972 
Q 541 559 786 353 
Q 1031 147 1250 147 
Q 1400 147 1495 239 
Q 1591 331 1591 463 
Q 1591 613 1497 722 
Q 1403 831 1078 1053 
Q 600 1384 459 1559 
Q 253 1816 253 2125 
Q 253 2463 486 2736 
Q 719 3009 1159 3009 
Q 1397 3009 1619 2894 
Q 1703 2847 1756 2847 
Q 1813 2847 1847 2870 
Q 1881 2894 1956 3003 
L 2063 3003 
z
" transform="scale(0.015625)"/>
      <path id="TimesNewRomanPS-BoldMT-63" d="M 2600 753 
L 2697 678 
Q 2491 291 2183 101 
Q 1875 -88 1528 -88 
Q 944 -88 594 353 
Q 244 794 244 1413 
Q 244 2009 563 2463 
Q 947 3009 1622 3009 
Q 2075 3009 2342 2781 
Q 2609 2553 2609 2272 
Q 2609 2094 2501 1987 
Q 2394 1881 2219 1881 
Q 2034 1881 1914 2003 
Q 1794 2125 1766 2438 
Q 1747 2634 1675 2713 
Q 1603 2791 1506 2791 
Q 1356 2791 1250 2631 
Q 1088 2391 1088 1894 
Q 1088 1481 1219 1104 
Q 1350 728 1578 544 
Q 1750 409 1984 409 
Q 2138 409 2275 481 
Q 2413 553 2600 753 
z
" transform="scale(0.015625)"/>
      <path id="TimesNewRomanPS-BoldMT-3e" d="M 128 3634 
L 3541 2244 
L 3541 1988 
L 128 578 
L 128 1013 
L 2769 2113 
L 128 3197 
L 128 3634 
z
" transform="scale(0.015625)"/>
      <path id="TimesNewRomanPS-BoldMT-3d" d="M 125 2825 
L 3544 2825 
L 3544 2419 
L 125 2419 
L 125 2825 
z
M 125 1803 
L 3544 1803 
L 3544 1397 
L 125 1397 
L 125 1803 
z
" transform="scale(0.015625)"/>
      <path id="TimesNewRomanPS-BoldMT-32" d="M 2650 0 
L 156 0 
L 156 69 
Q 1303 1434 1548 1906 
Q 1794 2378 1794 2828 
Q 1794 3156 1591 3373 
Q 1388 3591 1094 3591 
Q 613 3591 347 3109 
L 231 3150 
Q 400 3750 744 4037 
Q 1088 4325 1538 4325 
Q 1859 4325 2125 4175 
Q 2391 4025 2541 3764 
Q 2691 3503 2691 3275 
Q 2691 2859 2459 2431 
Q 2144 1853 1081 819 
L 1997 819 
Q 2334 819 2436 847 
Q 2538 875 2603 942 
Q 2669 1009 2775 1225 
L 2888 1225 
L 2650 0 
z
" transform="scale(0.015625)"/>
      <path id="TimesNewRomanPS-BoldMT-20" transform="scale(0.015625)"/>
      <path id="TimesNewRomanPS-BoldMT-6f" d="M 1594 3009 
Q 1975 3009 2303 2812 
Q 2631 2616 2801 2253 
Q 2972 1891 2972 1459 
Q 2972 838 2656 419 
Q 2275 -88 1603 -88 
Q 944 -88 587 375 
Q 231 838 231 1447 
Q 231 2075 595 2542 
Q 959 3009 1594 3009 
z
M 1606 2788 
Q 1447 2788 1333 2667 
Q 1219 2547 1183 2192 
Q 1147 1838 1147 1206 
Q 1147 872 1191 581 
Q 1225 359 1337 243 
Q 1450 128 1594 128 
Q 1734 128 1828 206 
Q 1950 313 1991 503 
Q 2053 800 2053 1703 
Q 2053 2234 1993 2432 
Q 1934 2631 1819 2722 
Q 1738 2788 1606 2788 
z
" transform="scale(0.015625)"/>
      <path id="TimesNewRomanPS-BoldMT-6e" d="M 1409 2922 
L 1409 2544 
Q 1634 2788 1840 2898 
Q 2047 3009 2284 3009 
Q 2569 3009 2756 2851 
Q 2944 2694 3006 2459 
Q 3056 2281 3056 1775 
L 3056 638 
Q 3056 300 3117 217 
Q 3178 134 3372 113 
L 3372 0 
L 1894 0 
L 1894 113 
Q 2059 134 2131 250 
Q 2181 328 2181 638 
L 2181 1938 
Q 2181 2297 2153 2390 
Q 2125 2484 2058 2536 
Q 1991 2588 1909 2588 
Q 1641 2588 1409 2203 
L 1409 638 
Q 1409 309 1470 221 
Q 1531 134 1697 113 
L 1697 0 
L 219 0 
L 219 113 
Q 403 131 481 231 
Q 534 300 534 638 
L 534 2288 
Q 534 2619 473 2700 
Q 413 2781 219 2806 
L 219 2922 
L 1409 2922 
z
" transform="scale(0.015625)"/>
      <path id="TimesNewRomanPS-BoldMT-72" d="M 1428 2922 
L 1428 2259 
Q 1719 2713 1937 2861 
Q 2156 3009 2359 3009 
Q 2534 3009 2639 2901 
Q 2744 2794 2744 2597 
Q 2744 2388 2642 2272 
Q 2541 2156 2397 2156 
Q 2231 2156 2109 2262 
Q 1988 2369 1966 2381 
Q 1934 2400 1894 2400 
Q 1803 2400 1722 2331 
Q 1594 2225 1528 2028 
Q 1428 1725 1428 1359 
L 1428 688 
L 1431 513 
Q 1431 334 1453 284 
Q 1491 200 1564 161 
Q 1638 122 1813 113 
L 1813 0 
L 234 0 
L 234 113 
Q 425 128 492 217 
Q 559 306 559 688 
L 559 2303 
Q 559 2553 534 2622 
Q 503 2709 443 2750 
Q 384 2791 234 2806 
L 234 2922 
L 1428 2922 
z
" transform="scale(0.015625)"/>
      <path id="TimesNewRomanPS-BoldMT-6b" d="M 1403 4238 
L 1403 1450 
L 2081 2116 
Q 2291 2319 2342 2409 
Q 2394 2500 2394 2584 
Q 2394 2669 2325 2725 
Q 2256 2781 2056 2806 
L 2056 2922 
L 3366 2922 
L 3366 2806 
Q 3178 2797 3037 2717 
Q 2897 2638 2488 2238 
L 2169 1925 
L 2856 919 
Q 3272 306 3350 231 
Q 3456 125 3619 113 
L 3619 0 
L 2109 0 
L 2109 113 
Q 2209 113 2254 150 
Q 2300 188 2300 231 
Q 2300 303 2169 497 
L 1591 1344 
L 1403 1159 
L 1403 634 
Q 1403 300 1465 217 
Q 1528 134 1722 113 
L 1722 0 
L 213 0 
L 213 113 
Q 397 131 475 231 
Q 528 300 528 634 
L 528 3603 
Q 528 3934 467 4015 
Q 406 4097 213 4122 
L 213 4238 
L 1403 4238 
z
" transform="scale(0.015625)"/>
     </defs>
     <use xlink:href="#TimesNewRomanPS-BoldMT-44"/>
     <use xlink:href="#TimesNewRomanPS-BoldMT-69" x="72.216797"/>
     <use xlink:href="#TimesNewRomanPS-BoldMT-73" x="100"/>
     <use xlink:href="#TimesNewRomanPS-BoldMT-63" x="138.916016"/>
     <use xlink:href="#TimesNewRomanPS-BoldMT-3e" x="183.300781"/>
     <use xlink:href="#TimesNewRomanPS-BoldMT-3d" x="240.283203"/>
     <use xlink:href="#TimesNewRomanPS-BoldMT-32" x="297.265625"/>
     <use xlink:href="#TimesNewRomanPS-BoldMT-20" x="347.265625"/>
     <use xlink:href="#TimesNewRomanPS-BoldMT-6f" x="372.265625"/>
     <use xlink:href="#TimesNewRomanPS-BoldMT-6e" x="422.265625"/>
     <use xlink:href="#TimesNewRomanPS-BoldMT-20" x="477.880859"/>
     <use xlink:href="#TimesNewRomanPS-BoldMT-72" x="502.880859"/>
     <use xlink:href="#TimesNewRomanPS-BoldMT-69" x="547.265625"/>
     <use xlink:href="#TimesNewRomanPS-BoldMT-73" x="575.048828"/>
     <use xlink:href="#TimesNewRomanPS-BoldMT-6b" x="613.964844"/>
    </g>
   </g>
   <g id="line2d_20">
    <defs>
     <path id="mf34db338c3" d="M 0 2.75 
C 0.729309 2.75 1.428845 2.460243 1.944544 1.944544 
C 2.460243 1.428845 2.75 0.729309 2.75 0 
C 2.75 -0.729309 2.460243 -1.428845 1.944544 -1.944544 
C 1.428845 -2.460243 0.729309 -2.75 0 -2.75 
C -0.729309 -2.75 -1.428845 -2.460243 -1.944544 -1.944544 
C -2.460243 -1.428845 -2.75 -0.729309 -2.75 0 
C -2.75 0.729309 -2.460243 1.428845 -1.944544 1.944544 
C -1.428845 2.460243 -0.729309 2.75 0 2.75 
z
" style="stroke: #475569"/>
    </defs>
    <g clip-path="url(#pae83f5112a)">
     <use xlink:href="#mf34db338c3" x="274.604325" y="19.090369" style="fill: #475569; stroke: #475569"/>
    </g>
   </g>
   <g id="line2d_21">
    <defs>
     <path id="m7dd4628712" d="M 0 2.75 
C 0.729309 2.75 1.428845 2.460243 1.944544 1.944544 
C 2.460243 1.428845 2.75 0.729309 2.75 0 
C 2.75 -0.729309 2.460243 -1.428845 1.944544 -1.944544 
C 1.428845 -2.460243 0.729309 -2.75 0 -2.75 
C -0.729309 -2.75 -1.428845 -2.460243 -1.944544 -1.944544 
C -2.460243 -1.428845 -2.75 -0.729309 -2.75 0 
C -2.75 0.729309 -2.460243 1.428845 -1.944544 1.944544 
C -1.428845 2.460243 -0.729309 2.75 0 2.75 
z
" style="stroke: #2563eb"/>
    </defs>
    <g clip-path="url(#pae83f5112a)">
     <use xlink:href="#m7dd4628712" x="274.604325" y="75.997182" style="fill: #2563eb; stroke: #2563eb"/>
    </g>
   </g>
   <g id="line2d_22">
    <defs>
     <path id="m797e129c8f" d="M 0 2.75 
C 0.729309 2.75 1.428845 2.460243 1.944544 1.944544 
C 2.460243 1.428845 2.75 0.729309 2.75 0 
C 2.75 -0.729309 2.460243 -1.428845 1.944544 -1.944544 
C 1.428845 -2.460243 0.729309 -2.75 0 -2.75 
C -0.729309 -2.75 -1.428845 -2.460243 -1.944544 -1.944544 
C -2.460243 -1.428845 -2.75 -0.729309 -2.75 0 
C -2.75 0.729309 -2.460243 1.428845 -1.944544 1.944544 
C -1.428845 2.460243 -0.729309 2.75 0 2.75 
z
" style="stroke: #c2410c"/>
    </defs>
    <g clip-path="url(#pae83f5112a)">
     <use xlink:href="#m797e129c8f" x="274.604325" y="132.903995" style="fill: #c2410c; stroke: #c2410c"/>
    </g>
   </g>
  </g>
  <g id="axes_2">
   <g id="patch_5">
    <path d="M 297.101523 138.594676 
L 510.541161 138.594676 
L 510.541161 13.399687 
L 297.101523 13.399687 
z
" style="fill: #ffffff"/>
   </g>
   <g id="matplotlib.axis_3">
    <g id="xtick_6">
     <g id="line2d_23">
      <path d="M 297.101523 138.594676 
L 297.101523 13.399687 
" clip-path="url(#pbfb931960c)" style="fill: none; stroke: #cbd5e1; stroke-opacity: 0.9; stroke-width: 0.8; stroke-linecap: square"/>
     </g>
     <g id="line2d_24">
      <g>
       <use xlink:href="#md07023e1f8" x="297.101523" y="138.594676" style="fill: #475569; stroke: #475569; stroke-width: 0.8"/>
      </g>
     </g>
     <g id="text_13">
      <!-- 0% -->
      <g style="fill: #475569" transform="translate(291.103164 151.844051) scale(0.09 -0.09)">
       <use xlink:href="#TimesNewRomanPSMT-30"/>
       <use xlink:href="#TimesNewRomanPSMT-25" x="50"/>
      </g>
     </g>
    </g>
    <g id="xtick_7">
     <g id="line2d_25">
      <path d="M 350.461433 138.594676 
L 350.461433 13.399687 
" clip-path="url(#pbfb931960c)" style="fill: none; stroke: #cbd5e1; stroke-opacity: 0.9; stroke-width: 0.8; stroke-linecap: square"/>
     </g>
     <g id="line2d_26">
      <g>
       <use xlink:href="#md07023e1f8" x="350.461433" y="138.594676" style="fill: #475569; stroke: #475569; stroke-width: 0.8"/>
      </g>
     </g>
     <g id="text_14">
      <!-- 25% -->
      <g style="fill: #475569" transform="translate(342.213073 151.844051) scale(0.09 -0.09)">
       <use xlink:href="#TimesNewRomanPSMT-32"/>
       <use xlink:href="#TimesNewRomanPSMT-35" x="50"/>
       <use xlink:href="#TimesNewRomanPSMT-25" x="100"/>
      </g>
     </g>
    </g>
    <g id="xtick_8">
     <g id="line2d_27">
      <path d="M 403.821342 138.594676 
L 403.821342 13.399687 
" clip-path="url(#pbfb931960c)" style="fill: none; stroke: #cbd5e1; stroke-opacity: 0.9; stroke-width: 0.8; stroke-linecap: square"/>
     </g>
     <g id="line2d_28">
      <g>
       <use xlink:href="#md07023e1f8" x="403.821342" y="138.594676" style="fill: #475569; stroke: #475569; stroke-width: 0.8"/>
      </g>
     </g>
     <g id="text_15">
      <!-- 50% -->
      <g style="fill: #475569" transform="translate(395.572983 151.844051) scale(0.09 -0.09)">
       <use xlink:href="#TimesNewRomanPSMT-35"/>
       <use xlink:href="#TimesNewRomanPSMT-30" x="50"/>
       <use xlink:href="#TimesNewRomanPSMT-25" x="100"/>
      </g>
     </g>
    </g>
    <g id="xtick_9">
     <g id="line2d_29">
      <path d="M 457.181251 138.594676 
L 457.181251 13.399687 
" clip-path="url(#pbfb931960c)" style="fill: none; stroke: #cbd5e1; stroke-opacity: 0.9; stroke-width: 0.8; stroke-linecap: square"/>
     </g>
     <g id="line2d_30">
      <g>
       <use xlink:href="#md07023e1f8" x="457.181251" y="138.594676" style="fill: #475569; stroke: #475569; stroke-width: 0.8"/>
      </g>
     </g>
     <g id="text_16">
      <!-- 75% -->
      <g style="fill: #475569" transform="translate(448.932892 151.844051) scale(0.09 -0.09)">
       <use xlink:href="#TimesNewRomanPSMT-37"/>
       <use xlink:href="#TimesNewRomanPSMT-35" x="50"/>
       <use xlink:href="#TimesNewRomanPSMT-25" x="100"/>
      </g>
     </g>
    </g>
    <g id="xtick_10">
     <g id="line2d_31">
      <path d="M 510.541161 138.594676 
L 510.541161 13.399687 
" clip-path="url(#pbfb931960c)" style="fill: none; stroke: #cbd5e1; stroke-opacity: 0.9; stroke-width: 0.8; stroke-linecap: square"/>
     </g>
     <g id="line2d_32">
      <g>
       <use xlink:href="#md07023e1f8" x="510.541161" y="138.594676" style="fill: #475569; stroke: #475569; stroke-width: 0.8"/>
      </g>
     </g>
     <g id="text_17">
      <!-- 100% -->
      <g style="fill: #475569" transform="translate(500.042801 151.844051) scale(0.09 -0.09)">
       <use xlink:href="#TimesNewRomanPSMT-31"/>
       <use xlink:href="#TimesNewRomanPSMT-30" x="50"/>
       <use xlink:href="#TimesNewRomanPSMT-30" x="100"/>
       <use xlink:href="#TimesNewRomanPSMT-25" x="150"/>
      </g>
     </g>
    </g>
   </g>
   <g id="matplotlib.axis_4">
    <g id="ytick_4">
     <g id="line2d_33"/>
    </g>
    <g id="ytick_5">
     <g id="line2d_34"/>
    </g>
    <g id="ytick_6">
     <g id="line2d_35"/>
    </g>
   </g>
   <g id="patch_6">
    <path d="M 297.101523 138.594676 
L 297.101523 13.399687 
" style="fill: none; stroke: #cbd5e1; stroke-width: 0.8; stroke-linejoin: miter; stroke-linecap: square"/>
   </g>
   <g id="patch_7">
    <path d="M 297.101523 138.594676 
L 510.541161 138.594676 
" style="fill: none; stroke: #cbd5e1; stroke-width: 0.8; stroke-linejoin: miter; stroke-linecap: square"/>
   </g>
   <g id="LineCollection_4">
    <path d="M 467.336226 19.090369 
L 508.963145 19.090369 
" clip-path="url(#pbfb931960c)" style="fill: none; stroke: #475569; stroke-width: 2"/>
   </g>
   <g id="line2d_36">
    <g clip-path="url(#pbfb931960c)">
     <use xlink:href="#m8fd2421fea" x="467.336226" y="19.090369" style="fill: #475569; stroke: #475569"/>
    </g>
   </g>
   <g id="line2d_37">
    <g clip-path="url(#pbfb931960c)">
     <use xlink:href="#m8fd2421fea" x="508.963145" y="19.090369" style="fill: #475569; stroke: #475569"/>
    </g>
   </g>
   <g id="text_18">
    <!-- 23/24 -->
    <g style="fill: #475569" transform="translate(474.959465 20.892127) scale(0.075 -0.075)">
     <defs>
      <path id="TimesNewRomanPSMT-33" d="M 325 3431 
Q 506 3859 782 4092 
Q 1059 4325 1472 4325 
Q 1981 4325 2253 3994 
Q 2459 3747 2459 3466 
Q 2459 3003 1878 2509 
Q 2269 2356 2469 2072 
Q 2669 1788 2669 1403 
Q 2669 853 2319 450 
Q 1863 -75 997 -75 
Q 569 -75 414 31 
Q 259 138 259 259 
Q 259 350 332 419 
Q 406 488 509 488 
Q 588 488 669 463 
Q 722 447 909 348 
Q 1097 250 1169 231 
Q 1284 197 1416 197 
Q 1734 197 1970 444 
Q 2206 691 2206 1028 
Q 2206 1275 2097 1509 
Q 2016 1684 1919 1775 
Q 1784 1900 1550 2001 
Q 1316 2103 1072 2103 
L 972 2103 
L 972 2197 
Q 1219 2228 1467 2375 
Q 1716 2522 1828 2728 
Q 1941 2934 1941 3181 
Q 1941 3503 1739 3701 
Q 1538 3900 1238 3900 
Q 753 3900 428 3381 
L 325 3431 
z
" transform="scale(0.015625)"/>
     </defs>
     <use xlink:href="#TimesNewRomanPSMT-32"/>
     <use xlink:href="#TimesNewRomanPSMT-33" x="50"/>
     <use xlink:href="#TimesNewRomanPSMT-2f" x="100"/>
     <use xlink:href="#TimesNewRomanPSMT-32" x="127.783203"/>
     <use xlink:href="#TimesNewRomanPSMT-34" x="177.783203"/>
    </g>
   </g>
   <g id="LineCollection_5">
    <path d="M 455.368689 75.997182 
L 505.598256 75.997182 
" clip-path="url(#pbfb931960c)" style="fill: none; stroke: #2563eb; stroke-width: 2"/>
   </g>
   <g id="line2d_38">
    <g clip-path="url(#pbfb931960c)">
     <use xlink:href="#m6b13640884" x="455.368689" y="75.997182" style="fill: #2563eb; stroke: #2563eb"/>
    </g>
   </g>
   <g id="line2d_39">
    <g clip-path="url(#pbfb931960c)">
     <use xlink:href="#m6b13640884" x="505.598256" y="75.997182" style="fill: #2563eb; stroke: #2563eb"/>
    </g>
   </g>
   <g id="text_19">
    <!-- 22/24 -->
    <g style="fill: #2563eb" transform="translate(466.066147 77.79894) scale(0.075 -0.075)">
     <use xlink:href="#TimesNewRomanPSMT-32"/>
     <use xlink:href="#TimesNewRomanPSMT-32" x="50"/>
     <use xlink:href="#TimesNewRomanPSMT-2f" x="100"/>
     <use xlink:href="#TimesNewRomanPSMT-32" x="127.783203"/>
     <use xlink:href="#TimesNewRomanPSMT-34" x="177.783203"/>
    </g>
   </g>
   <g id="LineCollection_6">
    <path d="M 481.090637 132.903995 
L 510.541161 132.903995 
" clip-path="url(#pbfb931960c)" style="fill: none; stroke: #c2410c; stroke-width: 2"/>
   </g>
   <g id="line2d_40">
    <g clip-path="url(#pbfb931960c)">
     <use xlink:href="#m22d50620e6" x="481.090637" y="132.903995" style="fill: #c2410c; stroke: #c2410c"/>
    </g>
   </g>
   <g id="line2d_41">
    <g clip-path="url(#pbfb931960c)">
     <use xlink:href="#m22d50620e6" x="510.541161" y="132.903995" style="fill: #c2410c; stroke: #c2410c"/>
    </g>
   </g>
   <g id="text_20">
    <!-- 24/24 -->
    <g style="fill: #c2410c" transform="translate(483.852783 134.705753) scale(0.075 -0.075)">
     <use xlink:href="#TimesNewRomanPSMT-32"/>
     <use xlink:href="#TimesNewRomanPSMT-34" x="50"/>
     <use xlink:href="#TimesNewRomanPSMT-2f" x="100"/>
     <use xlink:href="#TimesNewRomanPSMT-32" x="127.783203"/>
     <use xlink:href="#TimesNewRomanPSMT-34" x="177.783203"/>
    </g>
   </g>
   <g id="text_21">
    <!-- Score3 on risk -->
    <g transform="translate(297.101523 7.399687) scale(0.09 -0.09)">
     <defs>
      <path id="TimesNewRomanPS-BoldMT-53" d="M 3006 4334 
L 3041 2922 
L 2913 2922 
Q 2822 3453 2467 3776 
Q 2113 4100 1700 4100 
Q 1381 4100 1195 3929 
Q 1009 3759 1009 3538 
Q 1009 3397 1075 3288 
Q 1166 3141 1366 2997 
Q 1513 2894 2044 2631 
Q 2788 2266 3047 1941 
Q 3303 1616 3303 1197 
Q 3303 666 2889 283 
Q 2475 -100 1838 -100 
Q 1638 -100 1459 -59 
Q 1281 -19 1013 94 
Q 863 156 766 156 
Q 684 156 593 93 
Q 503 31 447 -97 
L 331 -97 
L 331 1503 
L 447 1503 
Q 584 828 976 473 
Q 1369 119 1822 119 
Q 2172 119 2380 309 
Q 2588 500 2588 753 
Q 2588 903 2508 1043 
Q 2428 1184 2265 1311 
Q 2103 1438 1691 1641 
Q 1113 1925 859 2125 
Q 606 2325 470 2572 
Q 334 2819 334 3116 
Q 334 3622 706 3978 
Q 1078 4334 1644 4334 
Q 1850 4334 2044 4284 
Q 2191 4247 2402 4145 
Q 2613 4044 2697 4044 
Q 2778 4044 2825 4094 
Q 2872 4144 2913 4334 
L 3006 4334 
z
" transform="scale(0.015625)"/>
      <path id="TimesNewRomanPS-BoldMT-65" d="M 2691 1566 
L 1088 1566 
Q 1116 984 1397 647 
Q 1613 388 1916 388 
Q 2103 388 2256 492 
Q 2409 597 2584 869 
L 2691 800 
Q 2453 316 2165 114 
Q 1878 -88 1500 -88 
Q 850 -88 516 413 
Q 247 816 247 1413 
Q 247 2144 642 2576 
Q 1038 3009 1569 3009 
Q 2013 3009 2339 2645 
Q 2666 2281 2691 1566 
z
M 1922 1775 
Q 1922 2278 1867 2465 
Q 1813 2653 1697 2750 
Q 1631 2806 1522 2806 
Q 1359 2806 1256 2647 
Q 1072 2369 1072 1884 
L 1072 1775 
L 1922 1775 
z
" transform="scale(0.015625)"/>
      <path id="TimesNewRomanPS-BoldMT-33" d="M 947 2125 
L 947 2234 
Q 1303 2338 1440 2427 
Q 1578 2516 1678 2698 
Q 1778 2881 1778 3069 
Q 1778 3328 1589 3514 
Q 1400 3700 1119 3700 
Q 681 3700 375 3238 
L 259 3278 
Q 484 3800 836 4062 
Q 1188 4325 1619 4325 
Q 2059 4325 2345 4056 
Q 2631 3788 2631 3428 
Q 2631 3194 2498 2976 
Q 2366 2759 2081 2594 
Q 2447 2416 2639 2155 
Q 2831 1894 2831 1500 
Q 2831 838 2351 373 
Q 1872 -91 1066 -91 
Q 528 -91 281 88 
Q 103 213 103 409 
Q 103 553 206 654 
Q 309 756 444 756 
Q 547 756 638 713 
Q 688 688 992 439 
Q 1297 191 1563 191 
Q 1794 191 1959 373 
Q 2125 556 2125 838 
Q 2125 1266 1825 1627 
Q 1525 1988 947 2125 
z
" transform="scale(0.015625)"/>
     </defs>
     <use xlink:href="#TimesNewRomanPS-BoldMT-53"/>
     <use xlink:href="#TimesNewRomanPS-BoldMT-63" x="55.615234"/>
     <use xlink:href="#TimesNewRomanPS-BoldMT-6f" x="100"/>
     <use xlink:href="#TimesNewRomanPS-BoldMT-72" x="150"/>
     <use xlink:href="#TimesNewRomanPS-BoldMT-65" x="192.634766"/>
     <use xlink:href="#TimesNewRomanPS-BoldMT-33" x="237.019531"/>
     <use xlink:href="#TimesNewRomanPS-BoldMT-20" x="287.019531"/>
     <use xlink:href="#TimesNewRomanPS-BoldMT-6f" x="312.019531"/>
     <use xlink:href="#TimesNewRomanPS-BoldMT-6e" x="362.019531"/>
     <use xlink:href="#TimesNewRomanPS-BoldMT-20" x="417.634766"/>
     <use xlink:href="#TimesNewRomanPS-BoldMT-72" x="442.634766"/>
     <use xlink:href="#TimesNewRomanPS-BoldMT-69" x="487.019531"/>
     <use xlink:href="#TimesNewRomanPS-BoldMT-73" x="514.802734"/>
     <use xlink:href="#TimesNewRomanPS-BoldMT-6b" x="553.71875"/>
    </g>
   </g>
   <g id="line2d_42">
    <g clip-path="url(#pbfb931960c)">
     <use xlink:href="#mf34db338c3" x="501.647842" y="19.090369" style="fill: #475569; stroke: #475569"/>
    </g>
   </g>
   <g id="line2d_43">
    <g clip-path="url(#pbfb931960c)">
     <use xlink:href="#m7dd4628712" x="492.754524" y="75.997182" style="fill: #2563eb; stroke: #2563eb"/>
    </g>
   </g>
   <g id="line2d_44">
    <g clip-path="url(#pbfb931960c)">
     <use xlink:href="#m797e129c8f" x="510.541161" y="132.903995" style="fill: #c2410c; stroke: #c2410c"/>
    </g>
   </g>
  </g>
  <g id="axes_3">
   <g id="patch_8">
    <path d="M 61.164687 297.064989 
L 274.604325 297.064989 
L 274.604325 171.87 
L 61.164687 171.87 
z
" style="fill: #ffffff"/>
   </g>
   <g id="matplotlib.axis_5">
    <g id="xtick_11">
     <g id="line2d_45">
      <path d="M 61.164687 297.064989 
L 61.164687 171.87 
" clip-path="url(#pc044f2526a)" style="fill: none; stroke: #cbd5e1; stroke-opacity: 0.9; stroke-width: 0.8; stroke-linecap: square"/>
     </g>
     <g id="line2d_46">
      <g>
       <use xlink:href="#md07023e1f8" x="61.164687" y="297.064989" style="fill: #475569; stroke: #475569; stroke-width: 0.8"/>
      </g>
     </g>
     <g id="text_22">
      <!-- 0% -->
      <g style="fill: #475569" transform="translate(55.166328 310.314364) scale(0.09 -0.09)">
       <use xlink:href="#TimesNewRomanPSMT-30"/>
       <use xlink:href="#TimesNewRomanPSMT-25" x="50"/>
      </g>
     </g>
    </g>
    <g id="xtick_12">
     <g id="line2d_47">
      <path d="M 114.524597 297.064989 
L 114.524597 171.87 
" clip-path="url(#pc044f2526a)" style="fill: none; stroke: #cbd5e1; stroke-opacity: 0.9; stroke-width: 0.8; stroke-linecap: square"/>
     </g>
     <g id="line2d_48">
      <g>
       <use xlink:href="#md07023e1f8" x="114.524597" y="297.064989" style="fill: #475569; stroke: #475569; stroke-width: 0.8"/>
      </g>
     </g>
     <g id="text_23">
      <!-- 25% -->
      <g style="fill: #475569" transform="translate(106.276237 310.314364) scale(0.09 -0.09)">
       <use xlink:href="#TimesNewRomanPSMT-32"/>
       <use xlink:href="#TimesNewRomanPSMT-35" x="50"/>
       <use xlink:href="#TimesNewRomanPSMT-25" x="100"/>
      </g>
     </g>
    </g>
    <g id="xtick_13">
     <g id="line2d_49">
      <path d="M 167.884506 297.064989 
L 167.884506 171.87 
" clip-path="url(#pc044f2526a)" style="fill: none; stroke: #cbd5e1; stroke-opacity: 0.9; stroke-width: 0.8; stroke-linecap: square"/>
     </g>
     <g id="line2d_50">
      <g>
       <use xlink:href="#md07023e1f8" x="167.884506" y="297.064989" style="fill: #475569; stroke: #475569; stroke-width: 0.8"/>
      </g>
     </g>
     <g id="text_24">
      <!-- 50% -->
      <g style="fill: #475569" transform="translate(159.636147 310.314364) scale(0.09 -0.09)">
       <use xlink:href="#TimesNewRomanPSMT-35"/>
       <use xlink:href="#TimesNewRomanPSMT-30" x="50"/>
       <use xlink:href="#TimesNewRomanPSMT-25" x="100"/>
      </g>
     </g>
    </g>
    <g id="xtick_14">
     <g id="line2d_51">
      <path d="M 221.244415 297.064989 
L 221.244415 171.87 
" clip-path="url(#pc044f2526a)" style="fill: none; stroke: #cbd5e1; stroke-opacity: 0.9; stroke-width: 0.8; stroke-linecap: square"/>
     </g>
     <g id="line2d_52">
      <g>
       <use xlink:href="#md07023e1f8" x="221.244415" y="297.064989" style="fill: #475569; stroke: #475569; stroke-width: 0.8"/>
      </g>
     </g>
     <g id="text_25">
      <!-- 75% -->
      <g style="fill: #475569" transform="translate(212.996056 310.314364) scale(0.09 -0.09)">
       <use xlink:href="#TimesNewRomanPSMT-37"/>
       <use xlink:href="#TimesNewRomanPSMT-35" x="50"/>
       <use xlink:href="#TimesNewRomanPSMT-25" x="100"/>
      </g>
     </g>
    </g>
    <g id="xtick_15">
     <g id="line2d_53">
      <path d="M 274.604325 297.064989 
L 274.604325 171.87 
" clip-path="url(#pc044f2526a)" style="fill: none; stroke: #cbd5e1; stroke-opacity: 0.9; stroke-width: 0.8; stroke-linecap: square"/>
     </g>
     <g id="line2d_54">
      <g>
       <use xlink:href="#md07023e1f8" x="274.604325" y="297.064989" style="fill: #475569; stroke: #475569; stroke-width: 0.8"/>
      </g>
     </g>
     <g id="text_26">
      <!-- 100% -->
      <g style="fill: #475569" transform="translate(264.105965 310.314364) scale(0.09 -0.09)">
       <use xlink:href="#TimesNewRomanPSMT-31"/>
       <use xlink:href="#TimesNewRomanPSMT-30" x="50"/>
       <use xlink:href="#TimesNewRomanPSMT-30" x="100"/>
       <use xlink:href="#TimesNewRomanPSMT-25" x="150"/>
      </g>
     </g>
    </g>
   </g>
   <g id="matplotlib.axis_6">
    <g id="ytick_7">
     <g id="line2d_55"/>
     <g id="text_27">
      <!-- Baseline -->
      <g style="fill: #0f172a" transform="translate(26.672344 180.685369) scale(0.09 -0.09)">
       <use xlink:href="#TimesNewRomanPSMT-42"/>
       <use xlink:href="#TimesNewRomanPSMT-61" x="66.699219"/>
       <use xlink:href="#TimesNewRomanPSMT-73" x="111.083984"/>
       <use xlink:href="#TimesNewRomanPSMT-65" x="150"/>
       <use xlink:href="#TimesNewRomanPSMT-6c" x="194.384766"/>
       <use xlink:href="#TimesNewRomanPSMT-69" x="222.167969"/>
       <use xlink:href="#TimesNewRomanPSMT-6e" x="249.951172"/>
       <use xlink:href="#TimesNewRomanPSMT-65" x="299.951172"/>
      </g>
     </g>
    </g>
    <g id="ytick_8">
     <g id="line2d_56"/>
     <g id="text_28">
      <!-- Generic control -->
      <g style="fill: #0f172a" transform="translate(1.44 237.592182) scale(0.09 -0.09)">
       <use xlink:href="#TimesNewRomanPSMT-47"/>
       <use xlink:href="#TimesNewRomanPSMT-65" x="72.216797"/>
       <use xlink:href="#TimesNewRomanPSMT-6e" x="116.601562"/>
       <use xlink:href="#TimesNewRomanPSMT-65" x="166.601562"/>
       <use xlink:href="#TimesNewRomanPSMT-72" x="210.986328"/>
       <use xlink:href="#TimesNewRomanPSMT-69" x="244.287109"/>
       <use xlink:href="#TimesNewRomanPSMT-63" x="272.070312"/>
       <use xlink:href="#TimesNewRomanPSMT-20" x="316.455078"/>
       <use xlink:href="#TimesNewRomanPSMT-63" x="341.455078"/>
       <use xlink:href="#TimesNewRomanPSMT-6f" x="385.839844"/>
       <use xlink:href="#TimesNewRomanPSMT-6e" x="435.839844"/>
       <use xlink:href="#TimesNewRomanPSMT-74" x="485.839844"/>
       <use xlink:href="#TimesNewRomanPSMT-72" x="513.623047"/>
       <use xlink:href="#TimesNewRomanPSMT-6f" x="546.923828"/>
       <use xlink:href="#TimesNewRomanPSMT-6c" x="596.923828"/>
      </g>
     </g>
    </g>
    <g id="ytick_9">
     <g id="line2d_57"/>
     <g id="text_29">
      <!-- Disclosure Full -->
      <g style="fill: #0f172a" transform="translate(2.415937 294.498995) scale(0.09 -0.09)">
       <use xlink:href="#TimesNewRomanPSMT-44"/>
       <use xlink:href="#TimesNewRomanPSMT-69" x="72.216797"/>
       <use xlink:href="#TimesNewRomanPSMT-73" x="100"/>
       <use xlink:href="#TimesNewRomanPSMT-63" x="138.916016"/>
       <use xlink:href="#TimesNewRomanPSMT-6c" x="183.300781"/>
       <use xlink:href="#TimesNewRomanPSMT-6f" x="211.083984"/>
       <use xlink:href="#TimesNewRomanPSMT-73" x="261.083984"/>
       <use xlink:href="#TimesNewRomanPSMT-75" x="300"/>
       <use xlink:href="#TimesNewRomanPSMT-72" x="350"/>
       <use xlink:href="#TimesNewRomanPSMT-65" x="383.300781"/>
       <use xlink:href="#TimesNewRomanPSMT-20" x="427.685547"/>
       <use xlink:href="#TimesNewRomanPSMT-46" x="452.685547"/>
       <use xlink:href="#TimesNewRomanPSMT-75" x="508.300781"/>
       <use xlink:href="#TimesNewRomanPSMT-6c" x="558.300781"/>
       <use xlink:href="#TimesNewRomanPSMT-6c" x="586.083984"/>
      </g>
     </g>
    </g>
   </g>
   <g id="patch_9">
    <path d="M 61.164687 297.064989 
L 61.164687 171.87 
" style="fill: none; stroke: #cbd5e1; stroke-width: 0.8; stroke-linejoin: miter; stroke-linecap: square"/>
   </g>
   <g id="patch_10">
    <path d="M 61.164687 297.064989 
L 274.604325 297.064989 
" style="fill: none; stroke: #cbd5e1; stroke-width: 0.8; stroke-linejoin: miter; stroke-linecap: square"/>
   </g>
   <g id="LineCollection_7">
    <path d="M 106.326665 177.560681 
L 183.445069 177.560681 
" clip-path="url(#pc044f2526a)" style="fill: none; stroke: #475569; stroke-width: 2"/>
   </g>
   <g id="line2d_58">
    <g clip-path="url(#pc044f2526a)">
     <use xlink:href="#m8fd2421fea" x="106.326665" y="177.560681" style="fill: #475569; stroke: #475569"/>
    </g>
   </g>
   <g id="line2d_59">
    <g clip-path="url(#pc044f2526a)">
     <use xlink:href="#m8fd2421fea" x="183.445069" y="177.560681" style="fill: #475569; stroke: #475569"/>
    </g>
   </g>
   <g id="text_30">
    <!-- 9/24 -->
    <g style="fill: #475569" transform="translate(150.809335 179.362439) scale(0.075 -0.075)">
     <defs>
      <path id="TimesNewRomanPSMT-39" d="M 338 -88 
L 338 28 
Q 744 34 1094 217 
Q 1444 400 1770 856 
Q 2097 1313 2225 1859 
Q 1734 1544 1338 1544 
Q 891 1544 572 1889 
Q 253 2234 253 2806 
Q 253 3363 572 3797 
Q 956 4325 1575 4325 
Q 2097 4325 2469 3894 
Q 2925 3359 2925 2575 
Q 2925 1869 2578 1258 
Q 2231 647 1613 244 
Q 1109 -88 516 -88 
L 338 -88 
z
M 2275 2091 
Q 2331 2497 2331 2741 
Q 2331 3044 2228 3395 
Q 2125 3747 1936 3934 
Q 1747 4122 1506 4122 
Q 1228 4122 1018 3872 
Q 809 3622 809 3128 
Q 809 2469 1088 2097 
Q 1291 1828 1588 1828 
Q 1731 1828 1928 1897 
Q 2125 1966 2275 2091 
z
" transform="scale(0.015625)"/>
     </defs>
     <use xlink:href="#TimesNewRomanPSMT-39"/>
     <use xlink:href="#TimesNewRomanPSMT-2f" x="50"/>
     <use xlink:href="#TimesNewRomanPSMT-32" x="77.783203"/>
     <use xlink:href="#TimesNewRomanPSMT-34" x="127.783203"/>
    </g>
   </g>
   <g id="LineCollection_8">
    <path d="M 99.524014 234.467494 
L 174.915294 234.467494 
" clip-path="url(#pc044f2526a)" style="fill: none; stroke: #2563eb; stroke-width: 2"/>
   </g>
   <g id="line2d_60">
    <g clip-path="url(#pc044f2526a)">
     <use xlink:href="#m6b13640884" x="99.524014" y="234.467494" style="fill: #2563eb; stroke: #2563eb"/>
    </g>
   </g>
   <g id="line2d_61">
    <g clip-path="url(#pc044f2526a)">
     <use xlink:href="#m6b13640884" x="174.915294" y="234.467494" style="fill: #2563eb; stroke: #2563eb"/>
    </g>
   </g>
   <g id="text_31">
    <!-- 8/24 -->
    <g style="fill: #2563eb" transform="translate(141.916017 236.269252) scale(0.075 -0.075)">
     <defs>
      <path id="TimesNewRomanPSMT-38" d="M 1228 2134 
Q 725 2547 579 2797 
Q 434 3047 434 3316 
Q 434 3728 753 4026 
Q 1072 4325 1600 4325 
Q 2113 4325 2425 4047 
Q 2738 3769 2738 3413 
Q 2738 3175 2569 2928 
Q 2400 2681 1866 2347 
Q 2416 1922 2594 1678 
Q 2831 1359 2831 1006 
Q 2831 559 2490 242 
Q 2150 -75 1597 -75 
Q 994 -75 656 303 
Q 388 606 388 966 
Q 388 1247 577 1523 
Q 766 1800 1228 2134 
z
M 1719 2469 
Q 2094 2806 2194 3001 
Q 2294 3197 2294 3444 
Q 2294 3772 2109 3958 
Q 1925 4144 1606 4144 
Q 1288 4144 1088 3959 
Q 888 3775 888 3528 
Q 888 3366 970 3203 
Q 1053 3041 1206 2894 
L 1719 2469 
z
M 1375 2016 
Q 1116 1797 991 1539 
Q 866 1281 866 981 
Q 866 578 1086 336 
Q 1306 94 1647 94 
Q 1984 94 2187 284 
Q 2391 475 2391 747 
Q 2391 972 2272 1150 
Q 2050 1481 1375 2016 
z
" transform="scale(0.015625)"/>
     </defs>
     <use xlink:href="#TimesNewRomanPSMT-38"/>
     <use xlink:href="#TimesNewRomanPSMT-2f" x="50"/>
     <use xlink:href="#TimesNewRomanPSMT-32" x="77.783203"/>
     <use xlink:href="#TimesNewRomanPSMT-34" x="127.783203"/>
    </g>
   </g>
   <g id="LineCollection_9">
    <path d="M 92.998058 291.374307 
L 166.108824 291.374307 
" clip-path="url(#pc044f2526a)" style="fill: none; stroke: #c2410c; stroke-width: 2"/>
   </g>
   <g id="line2d_62">
    <g clip-path="url(#pc044f2526a)">
     <use xlink:href="#m22d50620e6" x="92.998058" y="291.374307" style="fill: #c2410c; stroke: #c2410c"/>
    </g>
   </g>
   <g id="line2d_63">
    <g clip-path="url(#pc044f2526a)">
     <use xlink:href="#m22d50620e6" x="166.108824" y="291.374307" style="fill: #c2410c; stroke: #c2410c"/>
    </g>
   </g>
   <g id="text_32">
    <!-- 7/24 -->
    <g style="fill: #c2410c" transform="translate(133.022699 293.176065) scale(0.075 -0.075)">
     <use xlink:href="#TimesNewRomanPSMT-37"/>
     <use xlink:href="#TimesNewRomanPSMT-2f" x="50"/>
     <use xlink:href="#TimesNewRomanPSMT-32" x="77.783203"/>
     <use xlink:href="#TimesNewRomanPSMT-34" x="127.783203"/>
    </g>
   </g>
   <g id="text_33">
    <!-- Late risk rows -->
    <g transform="translate(61.164687 165.87) scale(0.09 -0.09)">
     <defs>
      <path id="TimesNewRomanPS-BoldMT-4c" d="M 4041 1488 
L 3881 0 
L 119 0 
L 119 116 
L 259 116 
Q 444 116 556 181 
Q 638 225 681 331 
Q 716 406 716 725 
L 716 3513 
Q 716 3838 681 3919 
Q 647 4000 542 4061 
Q 438 4122 259 4122 
L 119 4122 
L 119 4238 
L 2378 4238 
L 2378 4122 
L 2194 4122 
Q 2009 4122 1897 4056 
Q 1816 4013 1769 3906 
Q 1734 3831 1734 3513 
L 1734 813 
Q 1734 488 1771 398 
Q 1809 309 1919 266 
Q 1997 238 2297 238 
L 2650 238 
Q 2988 238 3213 356 
Q 3438 475 3602 731 
Q 3766 988 3913 1488 
L 4041 1488 
z
" transform="scale(0.015625)"/>
      <path id="TimesNewRomanPS-BoldMT-61" d="M 1828 431 
Q 1294 -41 869 -41 
Q 619 -41 453 123 
Q 288 288 288 534 
Q 288 869 575 1136 
Q 863 1403 1828 1847 
L 1828 2141 
Q 1828 2472 1792 2558 
Q 1756 2644 1656 2708 
Q 1556 2772 1431 2772 
Q 1228 2772 1097 2681 
Q 1016 2625 1016 2550 
Q 1016 2484 1103 2388 
Q 1222 2253 1222 2128 
Q 1222 1975 1108 1867 
Q 994 1759 809 1759 
Q 613 1759 480 1878 
Q 347 1997 347 2156 
Q 347 2381 525 2586 
Q 703 2791 1022 2900 
Q 1341 3009 1684 3009 
Q 2100 3009 2342 2832 
Q 2584 2656 2656 2450 
Q 2700 2319 2700 1847 
L 2700 713 
Q 2700 513 2715 461 
Q 2731 409 2762 384 
Q 2794 359 2834 359 
Q 2916 359 3000 475 
L 3094 400 
Q 2938 169 2770 64 
Q 2603 -41 2391 -41 
Q 2141 -41 2000 76 
Q 1859 194 1828 431 
z
M 1828 659 
L 1828 1638 
Q 1450 1416 1266 1163 
Q 1144 994 1144 822 
Q 1144 678 1247 569 
Q 1325 484 1466 484 
Q 1622 484 1828 659 
z
" transform="scale(0.015625)"/>
      <path id="TimesNewRomanPS-BoldMT-74" d="M 1375 3991 
L 1375 2922 
L 2069 2922 
L 2069 2613 
L 1375 2613 
L 1375 809 
Q 1375 556 1398 482 
Q 1422 409 1481 364 
Q 1541 319 1591 319 
Q 1794 319 1975 628 
L 2069 559 
Q 1816 -41 1247 -41 
Q 969 -41 776 114 
Q 584 269 531 459 
Q 500 566 500 1034 
L 500 2613 
L 119 2613 
L 119 2722 
Q 513 3000 789 3306 
Q 1066 3613 1272 3991 
L 1375 3991 
z
" transform="scale(0.015625)"/>
      <path id="TimesNewRomanPS-BoldMT-77" d="M 3113 -88 
L 2313 2056 
L 1528 -88 
L 1366 -88 
L 588 2031 
Q 413 2516 291 2663 
Q 213 2763 53 2806 
L 53 2922 
L 1528 2922 
L 1528 2806 
Q 1378 2806 1322 2762 
Q 1266 2719 1266 2663 
Q 1266 2609 1366 2344 
L 1794 1203 
L 2206 2344 
L 2175 2419 
Q 2081 2653 2011 2717 
Q 1941 2781 1794 2806 
L 1794 2922 
L 3291 2922 
L 3291 2806 
Q 3116 2797 3069 2758 
Q 3022 2719 3022 2647 
Q 3022 2578 3113 2344 
L 3525 1203 
L 3900 2253 
Q 3981 2478 3981 2559 
Q 3981 2681 3922 2737 
Q 3863 2794 3691 2806 
L 3691 2922 
L 4556 2922 
L 4556 2806 
Q 4413 2788 4328 2705 
Q 4244 2622 4109 2234 
L 3291 -88 
L 3113 -88 
z
" transform="scale(0.015625)"/>
     </defs>
     <use xlink:href="#TimesNewRomanPS-BoldMT-4c"/>
     <use xlink:href="#TimesNewRomanPS-BoldMT-61" x="66.699219"/>
     <use xlink:href="#TimesNewRomanPS-BoldMT-74" x="116.699219"/>
     <use xlink:href="#TimesNewRomanPS-BoldMT-65" x="150"/>
     <use xlink:href="#TimesNewRomanPS-BoldMT-20" x="194.384766"/>
     <use xlink:href="#TimesNewRomanPS-BoldMT-72" x="219.384766"/>
     <use xlink:href="#TimesNewRomanPS-BoldMT-69" x="263.769531"/>
     <use xlink:href="#TimesNewRomanPS-BoldMT-73" x="291.552734"/>
     <use xlink:href="#TimesNewRomanPS-BoldMT-6b" x="330.46875"/>
     <use xlink:href="#TimesNewRomanPS-BoldMT-20" x="386.083984"/>
     <use xlink:href="#TimesNewRomanPS-BoldMT-72" x="411.083984"/>
     <use xlink:href="#TimesNewRomanPS-BoldMT-6f" x="453.71875"/>
     <use xlink:href="#TimesNewRomanPS-BoldMT-77" x="503.71875"/>
     <use xlink:href="#TimesNewRomanPS-BoldMT-73" x="575.935547"/>
    </g>
   </g>
   <g id="line2d_64">
    <g clip-path="url(#pc044f2526a)">
     <use xlink:href="#mf34db338c3" x="141.204551" y="177.560681" style="fill: #475569; stroke: #475569"/>
    </g>
   </g>
   <g id="line2d_65">
    <g clip-path="url(#pc044f2526a)">
     <use xlink:href="#m7dd4628712" x="132.311233" y="234.467494" style="fill: #2563eb; stroke: #2563eb"/>
    </g>
   </g>
   <g id="line2d_66">
    <g clip-path="url(#pc044f2526a)">
     <use xlink:href="#m797e129c8f" x="123.417915" y="291.374307" style="fill: #c2410c; stroke: #c2410c"/>
    </g>
   </g>
  </g>
  <g id="axes_4">
   <g id="patch_11">
    <path d="M 297.101523 297.064989 
L 510.541161 297.064989 
L 510.541161 171.87 
L 297.101523 171.87 
z
" style="fill: #ffffff"/>
   </g>
   <g id="patch_12">
    <path d="M 318.445487 297.064989 
L 510.541161 297.064989 
L 510.541161 171.87 
L 318.445487 171.87 
z
" clip-path="url(#pcf8f23b716)" style="fill: #fee2e2; opacity: 0.7; stroke: #fee2e2; stroke-linejoin: miter"/>
   </g>
   <g id="matplotlib.axis_7">
    <g id="xtick_16">
     <g id="line2d_67">
      <path d="M 297.101523 297.064989 
L 297.101523 171.87 
" clip-path="url(#pcf8f23b716)" style="fill: none; stroke: #cbd5e1; stroke-opacity: 0.9; stroke-width: 0.8; stroke-linecap: square"/>
     </g>
     <g id="line2d_68">
      <g>
       <use xlink:href="#md07023e1f8" x="297.101523" y="297.064989" style="fill: #475569; stroke: #475569; stroke-width: 0.8"/>
      </g>
     </g>
     <g id="text_34">
      <!-- 0% -->
      <g style="fill: #475569" transform="translate(291.103164 310.314364) scale(0.09 -0.09)">
       <use xlink:href="#TimesNewRomanPSMT-30"/>
       <use xlink:href="#TimesNewRomanPSMT-25" x="50"/>
      </g>
     </g>
    </g>
    <g id="xtick_17">
     <g id="line2d_69">
      <path d="M 350.461433 297.064989 
L 350.461433 171.87 
" clip-path="url(#pcf8f23b716)" style="fill: none; stroke: #cbd5e1; stroke-opacity: 0.9; stroke-width: 0.8; stroke-linecap: square"/>
     </g>
     <g id="line2d_70">
      <g>
       <use xlink:href="#md07023e1f8" x="350.461433" y="297.064989" style="fill: #475569; stroke: #475569; stroke-width: 0.8"/>
      </g>
     </g>
     <g id="text_35">
      <!-- 25% -->
      <g style="fill: #475569" transform="translate(342.213073 310.314364) scale(0.09 -0.09)">
       <use xlink:href="#TimesNewRomanPSMT-32"/>
       <use xlink:href="#TimesNewRomanPSMT-35" x="50"/>
       <use xlink:href="#TimesNewRomanPSMT-25" x="100"/>
      </g>
     </g>
    </g>
    <g id="xtick_18">
     <g id="line2d_71">
      <path d="M 403.821342 297.064989 
L 403.821342 171.87 
" clip-path="url(#pcf8f23b716)" style="fill: none; stroke: #cbd5e1; stroke-opacity: 0.9; stroke-width: 0.8; stroke-linecap: square"/>
     </g>
     <g id="line2d_72">
      <g>
       <use xlink:href="#md07023e1f8" x="403.821342" y="297.064989" style="fill: #475569; stroke: #475569; stroke-width: 0.8"/>
      </g>
     </g>
     <g id="text_36">
      <!-- 50% -->
      <g style="fill: #475569" transform="translate(395.572983 310.314364) scale(0.09 -0.09)">
       <use xlink:href="#TimesNewRomanPSMT-35"/>
       <use xlink:href="#TimesNewRomanPSMT-30" x="50"/>
       <use xlink:href="#TimesNewRomanPSMT-25" x="100"/>
      </g>
     </g>
    </g>
    <g id="xtick_19">
     <g id="line2d_73">
      <path d="M 457.181251 297.064989 
L 457.181251 171.87 
" clip-path="url(#pcf8f23b716)" style="fill: none; stroke: #cbd5e1; stroke-opacity: 0.9; stroke-width: 0.8; stroke-linecap: square"/>
     </g>
     <g id="line2d_74">
      <g>
       <use xlink:href="#md07023e1f8" x="457.181251" y="297.064989" style="fill: #475569; stroke: #475569; stroke-width: 0.8"/>
      </g>
     </g>
     <g id="text_37">
      <!-- 75% -->
      <g style="fill: #475569" transform="translate(448.932892 310.314364) scale(0.09 -0.09)">
       <use xlink:href="#TimesNewRomanPSMT-37"/>
       <use xlink:href="#TimesNewRomanPSMT-35" x="50"/>
       <use xlink:href="#TimesNewRomanPSMT-25" x="100"/>
      </g>
     </g>
    </g>
    <g id="xtick_20">
     <g id="line2d_75">
      <path d="M 510.541161 297.064989 
L 510.541161 171.87 
" clip-path="url(#pcf8f23b716)" style="fill: none; stroke: #cbd5e1; stroke-opacity: 0.9; stroke-width: 0.8; stroke-linecap: square"/>
     </g>
     <g id="line2d_76">
      <g>
       <use xlink:href="#md07023e1f8" x="510.541161" y="297.064989" style="fill: #475569; stroke: #475569; stroke-width: 0.8"/>
      </g>
     </g>
     <g id="text_38">
      <!-- 100% -->
      <g style="fill: #475569" transform="translate(500.042801 310.314364) scale(0.09 -0.09)">
       <use xlink:href="#TimesNewRomanPSMT-31"/>
       <use xlink:href="#TimesNewRomanPSMT-30" x="50"/>
       <use xlink:href="#TimesNewRomanPSMT-30" x="100"/>
       <use xlink:href="#TimesNewRomanPSMT-25" x="150"/>
      </g>
     </g>
    </g>
   </g>
   <g id="matplotlib.axis_8">
    <g id="ytick_10">
     <g id="line2d_77"/>
    </g>
    <g id="ytick_11">
     <g id="line2d_78"/>
    </g>
    <g id="ytick_12">
     <g id="line2d_79"/>
    </g>
   </g>
   <g id="line2d_80">
    <path d="M 318.445487 297.064989 
L 318.445487 171.87 
" clip-path="url(#pcf8f23b716)" style="fill: none; stroke-dasharray: 4.44,1.92; stroke-dashoffset: 0; stroke: #dc2626; stroke-width: 1.2"/>
   </g>
   <g id="patch_13">
    <path d="M 297.101523 297.064989 
L 297.101523 171.87 
" style="fill: none; stroke: #cbd5e1; stroke-width: 0.8; stroke-linejoin: miter; stroke-linecap: square"/>
   </g>
   <g id="patch_14">
    <path d="M 297.101523 297.064989 
L 510.541161 297.064989 
" style="fill: none; stroke: #cbd5e1; stroke-width: 0.8; stroke-linejoin: miter; stroke-linecap: square"/>
   </g>
   <g id="text_39">
    <!-- 10% guardrail -->
    <g style="fill: #dc2626" transform="translate(318.872366 167.63985) scale(0.08 -0.08)">
     <defs>
      <path id="TimesNewRomanPSMT-67" d="M 966 1044 
Q 703 1172 562 1401 
Q 422 1631 422 1909 
Q 422 2334 742 2640 
Q 1063 2947 1563 2947 
Q 1972 2947 2272 2747 
L 2878 2747 
Q 3013 2747 3034 2739 
Q 3056 2731 3066 2713 
Q 3084 2684 3084 2613 
Q 3084 2531 3069 2500 
Q 3059 2484 3036 2475 
Q 3013 2466 2878 2466 
L 2506 2466 
Q 2681 2241 2681 1891 
Q 2681 1491 2375 1206 
Q 2069 922 1553 922 
Q 1341 922 1119 984 
Q 981 866 932 777 
Q 884 688 884 625 
Q 884 572 936 522 
Q 988 472 1138 450 
Q 1225 438 1575 428 
Q 2219 413 2409 384 
Q 2700 344 2873 169 
Q 3047 -6 3047 -263 
Q 3047 -616 2716 -925 
Q 2228 -1381 1444 -1381 
Q 841 -1381 425 -1109 
Q 191 -953 191 -784 
Q 191 -709 225 -634 
Q 278 -519 444 -313 
Q 466 -284 763 25 
Q 600 122 533 198 
Q 466 275 466 372 
Q 466 481 555 628 
Q 644 775 966 1044 
z
M 1509 2797 
Q 1278 2797 1122 2612 
Q 966 2428 966 2047 
Q 966 1553 1178 1281 
Q 1341 1075 1591 1075 
Q 1828 1075 1981 1253 
Q 2134 1431 2134 1813 
Q 2134 2309 1919 2591 
Q 1759 2797 1509 2797 
z
M 934 0 
Q 788 -159 713 -296 
Q 638 -434 638 -550 
Q 638 -700 819 -813 
Q 1131 -1006 1722 -1006 
Q 2284 -1006 2551 -807 
Q 2819 -609 2819 -384 
Q 2819 -222 2659 -153 
Q 2497 -84 2016 -72 
Q 1313 -53 934 0 
z
" transform="scale(0.015625)"/>
      <path id="TimesNewRomanPSMT-64" d="M 2222 322 
Q 2013 103 1813 7 
Q 1613 -88 1381 -88 
Q 913 -88 563 304 
Q 213 697 213 1313 
Q 213 1928 600 2439 
Q 988 2950 1597 2950 
Q 1975 2950 2222 2709 
L 2222 3238 
Q 2222 3728 2198 3840 
Q 2175 3953 2125 3993 
Q 2075 4034 2000 4034 
Q 1919 4034 1784 3984 
L 1744 4094 
L 2597 4444 
L 2738 4444 
L 2738 1134 
Q 2738 631 2761 520 
Q 2784 409 2836 365 
Q 2888 322 2956 322 
Q 3041 322 3181 375 
L 3216 266 
L 2366 -88 
L 2222 -88 
L 2222 322 
z
M 2222 541 
L 2222 2016 
Q 2203 2228 2109 2403 
Q 2016 2578 1861 2667 
Q 1706 2756 1559 2756 
Q 1284 2756 1069 2509 
Q 784 2184 784 1559 
Q 784 928 1059 592 
Q 1334 256 1672 256 
Q 1956 256 2222 541 
z
" transform="scale(0.015625)"/>
     </defs>
     <use xlink:href="#TimesNewRomanPSMT-31"/>
     <use xlink:href="#TimesNewRomanPSMT-30" x="50"/>
     <use xlink:href="#TimesNewRomanPSMT-25" x="100"/>
     <use xlink:href="#TimesNewRomanPSMT-20" x="183.300781"/>
     <use xlink:href="#TimesNewRomanPSMT-67" x="208.300781"/>
     <use xlink:href="#TimesNewRomanPSMT-75" x="258.300781"/>
     <use xlink:href="#TimesNewRomanPSMT-61" x="308.300781"/>
     <use xlink:href="#TimesNewRomanPSMT-72" x="352.685547"/>
     <use xlink:href="#TimesNewRomanPSMT-64" x="385.986328"/>
     <use xlink:href="#TimesNewRomanPSMT-72" x="435.986328"/>
     <use xlink:href="#TimesNewRomanPSMT-61" x="469.287109"/>
     <use xlink:href="#TimesNewRomanPSMT-69" x="513.671875"/>
     <use xlink:href="#TimesNewRomanPSMT-6c" x="541.455078"/>
    </g>
   </g>
   <g id="LineCollection_10">
    <path d="M 297.101523 177.560681 
L 317.681764 177.560681 
" clip-path="url(#pcf8f23b716)" style="fill: none; stroke: #475569; stroke-width: 2"/>
   </g>
   <g id="line2d_81">
    <g clip-path="url(#pcf8f23b716)">
     <use xlink:href="#m8fd2421fea" x="297.101523" y="177.560681" style="fill: #475569; stroke: #475569"/>
    </g>
   </g>
   <g id="line2d_82">
    <g clip-path="url(#pcf8f23b716)">
     <use xlink:href="#m8fd2421fea" x="317.681764" y="177.560681" style="fill: #475569; stroke: #475569"/>
    </g>
   </g>
   <g id="text_40">
    <!-- 0/36 -->
    <g style="fill: #475569" transform="translate(306.706307 179.362439) scale(0.075 -0.075)">
     <defs>
      <path id="TimesNewRomanPSMT-36" d="M 2869 4325 
L 2869 4209 
Q 2456 4169 2195 4045 
Q 1934 3922 1679 3669 
Q 1425 3416 1258 3105 
Q 1091 2794 978 2366 
Q 1428 2675 1881 2675 
Q 2316 2675 2634 2325 
Q 2953 1975 2953 1425 
Q 2953 894 2631 456 
Q 2244 -75 1606 -75 
Q 1172 -75 869 213 
Q 275 772 275 1663 
Q 275 2231 503 2743 
Q 731 3256 1154 3653 
Q 1578 4050 1965 4187 
Q 2353 4325 2688 4325 
L 2869 4325 
z
M 925 2138 
Q 869 1716 869 1456 
Q 869 1156 980 804 
Q 1091 453 1309 247 
Q 1469 100 1697 100 
Q 1969 100 2183 356 
Q 2397 613 2397 1088 
Q 2397 1622 2184 2012 
Q 1972 2403 1581 2403 
Q 1463 2403 1327 2353 
Q 1191 2303 925 2138 
z
" transform="scale(0.015625)"/>
     </defs>
     <use xlink:href="#TimesNewRomanPSMT-30"/>
     <use xlink:href="#TimesNewRomanPSMT-2f" x="50"/>
     <use xlink:href="#TimesNewRomanPSMT-33" x="77.783203"/>
     <use xlink:href="#TimesNewRomanPSMT-36" x="127.783203"/>
    </g>
   </g>
   <g id="LineCollection_11">
    <path d="M 297.101523 234.467494 
L 317.681764 234.467494 
" clip-path="url(#pcf8f23b716)" style="fill: none; stroke: #2563eb; stroke-width: 2"/>
   </g>
   <g id="line2d_83">
    <g clip-path="url(#pcf8f23b716)">
     <use xlink:href="#m6b13640884" x="297.101523" y="234.467494" style="fill: #2563eb; stroke: #2563eb"/>
    </g>
   </g>
   <g id="line2d_84">
    <g clip-path="url(#pcf8f23b716)">
     <use xlink:href="#m6b13640884" x="317.681764" y="234.467494" style="fill: #2563eb; stroke: #2563eb"/>
    </g>
   </g>
   <g id="text_41">
    <!-- 0/36 -->
    <g style="fill: #2563eb" transform="translate(306.706307 236.269252) scale(0.075 -0.075)">
     <use xlink:href="#TimesNewRomanPSMT-30"/>
     <use xlink:href="#TimesNewRomanPSMT-2f" x="50"/>
     <use xlink:href="#TimesNewRomanPSMT-33" x="77.783203"/>
     <use xlink:href="#TimesNewRomanPSMT-36" x="127.783203"/>
    </g>
   </g>
   <g id="LineCollection_12">
    <path d="M 313.89995 291.374307 
L 365.169803 291.374307 
" clip-path="url(#pcf8f23b716)" style="fill: none; stroke: #c2410c; stroke-width: 2"/>
   </g>
   <g id="line2d_85">
    <g clip-path="url(#pcf8f23b716)">
     <use xlink:href="#m22d50620e6" x="313.89995" y="291.374307" style="fill: #c2410c; stroke: #c2410c"/>
    </g>
   </g>
   <g id="line2d_86">
    <g clip-path="url(#pcf8f23b716)">
     <use xlink:href="#m22d50620e6" x="365.169803" y="291.374307" style="fill: #c2410c; stroke: #c2410c"/>
    </g>
   </g>
   <g id="text_42">
    <!-- 6/36 -->
    <g style="fill: #c2410c" transform="translate(342.27958 293.176065) scale(0.075 -0.075)">
     <use xlink:href="#TimesNewRomanPSMT-36"/>
     <use xlink:href="#TimesNewRomanPSMT-2f" x="50"/>
     <use xlink:href="#TimesNewRomanPSMT-33" x="77.783203"/>
     <use xlink:href="#TimesNewRomanPSMT-36" x="127.783203"/>
    </g>
   </g>
   <g id="text_43">
    <!-- Benign false alarm -->
    <g transform="translate(297.101523 165.87) scale(0.09 -0.09)">
     <defs>
      <path id="TimesNewRomanPS-BoldMT-42" d="M 2847 2247 
Q 3450 2106 3694 1906 
Q 4044 1622 4044 1169 
Q 4044 691 3659 378 
Q 3188 0 2288 0 
L 134 0 
L 134 116 
Q 428 116 533 170 
Q 638 225 680 312 
Q 722 400 722 744 
L 722 3494 
Q 722 3838 680 3927 
Q 638 4016 531 4069 
Q 425 4122 134 4122 
L 134 4238 
L 2166 4238 
Q 2894 4238 3197 4108 
Q 3500 3978 3675 3720 
Q 3850 3463 3850 3172 
Q 3850 2866 3628 2627 
Q 3406 2388 2847 2247 
z
M 1709 2331 
Q 2153 2331 2364 2431 
Q 2575 2531 2687 2712 
Q 2800 2894 2800 3175 
Q 2800 3456 2689 3636 
Q 2578 3816 2372 3909 
Q 2166 4003 1709 4000 
L 1709 2331 
z
M 1709 2088 
L 1709 728 
L 1706 572 
Q 1706 403 1792 317 
Q 1878 231 2047 231 
Q 2297 231 2508 342 
Q 2719 453 2831 664 
Q 2944 875 2944 1134 
Q 2944 1431 2806 1667 
Q 2669 1903 2428 1997 
Q 2188 2091 1709 2088 
z
" transform="scale(0.015625)"/>
      <path id="TimesNewRomanPS-BoldMT-67" d="M 2091 2888 
L 3075 2888 
L 3075 2544 
L 2516 2544 
Q 2669 2391 2728 2266 
Q 2803 2097 2803 1913 
Q 2803 1600 2629 1370 
Q 2456 1141 2157 1011 
Q 1859 881 1628 881 
Q 1609 881 1253 897 
Q 1113 897 1017 805 
Q 922 713 922 584 
Q 922 472 1008 400 
Q 1094 328 1288 328 
L 1828 334 
Q 2484 334 2731 191 
Q 3084 -9 3084 -425 
Q 3084 -691 2921 -908 
Q 2759 -1125 2494 -1228 
Q 2091 -1381 1566 -1381 
Q 1172 -1381 847 -1304 
Q 522 -1228 381 -1092 
Q 241 -956 241 -806 
Q 241 -663 348 -548 
Q 456 -434 750 -356 
Q 344 -156 344 200 
Q 344 416 509 619 
Q 675 822 1034 972 
Q 616 1125 428 1375 
Q 241 1625 241 1953 
Q 241 2381 591 2695 
Q 941 3009 1491 3009 
Q 1781 3009 2091 2888 
z
M 1550 2816 
Q 1369 2816 1244 2633 
Q 1119 2450 1119 1875 
Q 1119 1409 1242 1236 
Q 1366 1063 1534 1063 
Q 1722 1063 1847 1234 
Q 1972 1406 1972 1903 
Q 1972 2463 1831 2666 
Q 1731 2816 1550 2816 
z
M 1366 -431 
Q 1047 -431 944 -484 
Q 766 -581 766 -747 
Q 766 -906 950 -1036 
Q 1134 -1166 1644 -1166 
Q 2078 -1166 2326 -1050 
Q 2575 -934 2575 -725 
Q 2575 -647 2528 -594 
Q 2444 -500 2273 -465 
Q 2103 -431 1366 -431 
z
" transform="scale(0.015625)"/>
      <path id="TimesNewRomanPS-BoldMT-66" d="M 1497 2616 
L 1497 588 
Q 1497 294 1559 219 
Q 1659 103 1928 113 
L 1928 0 
L 206 0 
L 206 113 
Q 403 116 486 158 
Q 569 200 600 275 
Q 631 350 631 588 
L 631 2616 
L 206 2616 
L 206 2922 
L 631 2922 
L 631 3138 
L 628 3284 
Q 628 3734 958 4034 
Q 1288 4334 1850 4334 
Q 2234 4334 2420 4190 
Q 2606 4047 2606 3872 
Q 2606 3731 2490 3628 
Q 2375 3525 2184 3525 
Q 2022 3525 1926 3609 
Q 1831 3694 1831 3797 
Q 1831 3825 1850 3913 
Q 1863 3966 1863 4013 
Q 1863 4078 1825 4109 
Q 1775 4156 1703 4156 
Q 1613 4156 1552 4081 
Q 1491 4006 1491 3841 
L 1497 3294 
L 1497 2922 
L 1928 2922 
L 1928 2616 
L 1497 2616 
z
" transform="scale(0.015625)"/>
      <path id="TimesNewRomanPS-BoldMT-6c" d="M 1359 4238 
L 1359 606 
Q 1359 297 1431 211 
Q 1503 125 1713 113 
L 1713 0 
L 134 0 
L 134 113 
Q 328 119 422 225 
Q 484 297 484 606 
L 484 3631 
Q 484 3938 412 4023 
Q 341 4109 134 4122 
L 134 4238 
L 1359 4238 
z
" transform="scale(0.015625)"/>
      <path id="TimesNewRomanPS-BoldMT-6d" d="M 1428 2922 
L 1428 2538 
Q 1669 2800 1873 2904 
Q 2078 3009 2322 3009 
Q 2603 3009 2793 2878 
Q 2984 2747 3088 2478 
Q 3338 2759 3567 2884 
Q 3797 3009 4047 3009 
Q 4350 3009 4529 2870 
Q 4709 2731 4779 2517 
Q 4850 2303 4850 1834 
L 4850 638 
Q 4850 300 4911 219 
Q 4972 138 5166 113 
L 5166 0 
L 3656 0 
L 3656 113 
Q 3834 128 3919 250 
Q 3975 334 3975 638 
L 3975 1894 
Q 3975 2284 3944 2390 
Q 3913 2497 3845 2548 
Q 3778 2600 3688 2600 
Q 3553 2600 3415 2501 
Q 3278 2403 3138 2206 
L 3138 638 
Q 3138 322 3191 241 
Q 3263 125 3466 113 
L 3466 0 
L 1953 0 
L 1953 113 
Q 2075 119 2145 173 
Q 2216 228 2239 304 
Q 2263 381 2263 638 
L 2263 1894 
Q 2263 2291 2231 2391 
Q 2200 2491 2126 2547 
Q 2053 2603 1969 2603 
Q 1844 2603 1741 2538 
Q 1594 2441 1428 2206 
L 1428 638 
Q 1428 328 1489 229 
Q 1550 131 1744 113 
L 1744 0 
L 238 0 
L 238 113 
Q 422 131 500 231 
Q 553 300 553 638 
L 553 2288 
Q 553 2619 492 2700 
Q 431 2781 238 2806 
L 238 2922 
L 1428 2922 
z
" transform="scale(0.015625)"/>
     </defs>
     <use xlink:href="#TimesNewRomanPS-BoldMT-42"/>
     <use xlink:href="#TimesNewRomanPS-BoldMT-65" x="66.699219"/>
     <use xlink:href="#TimesNewRomanPS-BoldMT-6e" x="111.083984"/>
     <use xlink:href="#TimesNewRomanPS-BoldMT-69" x="166.699219"/>
     <use xlink:href="#TimesNewRomanPS-BoldMT-67" x="194.482422"/>
     <use xlink:href="#TimesNewRomanPS-BoldMT-6e" x="244.482422"/>
     <use xlink:href="#TimesNewRomanPS-BoldMT-20" x="300.097656"/>
     <use xlink:href="#TimesNewRomanPS-BoldMT-66" x="325.097656"/>
     <use xlink:href="#TimesNewRomanPS-BoldMT-61" x="358.398438"/>
     <use xlink:href="#TimesNewRomanPS-BoldMT-6c" x="408.398438"/>
     <use xlink:href="#TimesNewRomanPS-BoldMT-73" x="436.181641"/>
     <use xlink:href="#TimesNewRomanPS-BoldMT-65" x="475.097656"/>
     <use xlink:href="#TimesNewRomanPS-BoldMT-20" x="519.482422"/>
     <use xlink:href="#TimesNewRomanPS-BoldMT-61" x="544.482422"/>
     <use xlink:href="#TimesNewRomanPS-BoldMT-6c" x="594.482422"/>
     <use xlink:href="#TimesNewRomanPS-BoldMT-61" x="622.265625"/>
     <use xlink:href="#TimesNewRomanPS-BoldMT-72" x="672.265625"/>
     <use xlink:href="#TimesNewRomanPS-BoldMT-6d" x="716.650391"/>
    </g>
   </g>
   <g id="line2d_87">
    <g clip-path="url(#pcf8f23b716)">
     <use xlink:href="#mf34db338c3" x="297.101523" y="177.560681" style="fill: #475569; stroke: #475569"/>
    </g>
   </g>
   <g id="line2d_88">
    <g clip-path="url(#pcf8f23b716)">
     <use xlink:href="#m7dd4628712" x="297.101523" y="234.467494" style="fill: #2563eb; stroke: #2563eb"/>
    </g>
   </g>
   <g id="line2d_89">
    <g clip-path="url(#pcf8f23b716)">
     <use xlink:href="#m797e129c8f" x="332.674796" y="291.374307" style="fill: #c2410c; stroke: #c2410c"/>
    </g>
   </g>
  </g>
 </g>
 <defs>
  <clipPath id="pae83f5112a">
   <rect x="61.164687" y="13.399687" width="213.439637" height="125.194989"/>
  </clipPath>
  <clipPath id="pbfb931960c">
   <rect x="297.101523" y="13.399687" width="213.439637" height="125.194989"/>
  </clipPath>
  <clipPath id="pc044f2526a">
   <rect x="61.164687" y="171.87" width="213.439637" height="125.194989"/>
  </clipPath>
  <clipPath id="pcf8f23b716">
   <rect x="297.101523" y="171.87" width="213.439637" height="125.194989"/>
  </clipPath>
 </defs>
</svg>
